<svg xmlns="http://www.w3.org/2000/svg" xmlns:xlink="http://www.w3.org/1999/xlink" width="500" zoomAndPan="magnify" viewBox="0 0 375 374.999991" height="500" preserveAspectRatio="xMidYMid meet" version="1.2"><defs><clipPath id="7e09e64895"><path d="M 96.574219 99.578125 L 278.074219 99.578125 L 278.074219 224.828125 L 96.574219 224.828125 Z M 96.574219 99.578125 "/></clipPath><clipPath id="ceca351609"><path d="M 139.351562 127.277344 L 225.601562 127.277344 L 225.601562 197 L 139.351562 197 Z M 139.351562 127.277344 "/></clipPath><clipPath id="3bf8275b5c"><path d="M 139.351562 127.277344 L 225.601562 127.277344 L 225.601562 197 L 139.351562 197 Z M 139.351562 127.277344 "/></clipPath><clipPath id="298204eae7"><path d="M 285 219 L 295.5 219 L 295.5 224.996094 L 285 224.996094 Z M 285 219 "/></clipPath><clipPath id="b6f1708ac9"><path d="M 283 202.496094 L 293 202.496094 L 293 224 L 283 224 Z M 283 202.496094 "/></clipPath></defs><g id="84b5ca3c0c"><rect x="0" width="375" y="0" height="374.999991" style="fill:#ffffff;fill-opacity:1;stroke:none;"/><rect x="0" width="375" y="0" height="374.999991" style="fill:#70b9be;fill-opacity:1;stroke:none;"/><g clip-rule="nonzero" clip-path="url(#7e09e64895)"><path style=" stroke:none;fill-rule:nonzero;fill:#ffffff;fill-opacity:1;" d="M 110.527344 224.597656 C 108.523438 224.597656 106.644531 223.789062 105.28125 222.339844 C 103.914062 220.886719 103.1875 219.011719 103.273438 217.003906 L 106.558594 143.492188 C 106.601562 142.167969 105.835938 140.890625 104.597656 140.460938 C 99.179688 138.5 96.574219 133.550781 96.574219 125.316406 C 96.574219 121.261719 98.792969 109.058594 100.371094 103.257812 C 100.800781 101.765625 102.164062 100.699219 103.742188 100.699219 C 104.726562 100.699219 105.664062 101.125 106.304688 101.808594 C 106.558594 102.0625 106.730469 102.363281 106.902344 102.703125 L 107.242188 103.386719 L 107.5 102.703125 C 108.011719 101.507812 109.203125 100.699219 110.527344 100.699219 C 111.851562 100.699219 113.042969 101.464844 113.554688 102.703125 L 113.855469 103.386719 L 114.152344 102.703125 C 114.324219 102.363281 114.496094 102.0625 114.75 101.808594 C 115.390625 101.082031 116.328125 100.699219 117.3125 100.699219 C 118.890625 100.699219 120.253906 101.765625 120.683594 103.257812 C 122.261719 109.058594 124.480469 121.261719 124.480469 125.316406 C 124.480469 133.550781 121.875 138.5 116.5 140.460938 C 115.304688 140.890625 114.496094 142.167969 114.539062 143.492188 L 117.824219 217.003906 C 117.910156 219.011719 117.183594 220.886719 115.816406 222.335938 C 114.410156 223.789062 112.53125 224.597656 110.527344 224.597656 Z M 103.742188 103 C 103.230469 103 102.761719 103.34375 102.589844 103.855469 C 100.96875 109.828125 98.878906 121.859375 98.878906 125.316406 C 98.878906 134.832031 102.589844 137.304688 105.363281 138.285156 C 107.539062 139.097656 108.949219 141.230469 108.820312 143.578125 L 105.535156 217.089844 C 105.492188 218.457031 105.960938 219.734375 106.902344 220.757812 C 107.839844 221.742188 109.121094 222.296875 110.484375 222.296875 C 111.851562 222.296875 113.128906 221.742188 114.070312 220.757812 C 115.007812 219.777344 115.519531 218.457031 115.433594 217.089844 L 112.148438 143.578125 C 112.0625 141.1875 113.429688 139.097656 115.605469 138.285156 C 121.40625 136.152344 122.089844 129.839844 122.089844 125.316406 C 122.089844 121.859375 120 109.828125 118.378906 103.855469 C 118.25 103.34375 117.78125 103 117.226562 103 C 116.757812 103 116.5 103.257812 116.371094 103.386719 C 116.246094 103.515625 116.03125 103.8125 116.074219 104.28125 L 117.78125 120.835938 C 117.867188 121.730469 117.566406 122.628906 116.96875 123.269531 C 116.371094 123.949219 115.519531 124.335938 114.625 124.335938 C 112.875 124.335938 111.464844 122.925781 111.464844 121.175781 L 111.464844 103.984375 C 111.464844 103.429688 111.039062 103 110.484375 103 C 109.929688 103 109.503906 103.429688 109.503906 103.984375 L 109.503906 121.175781 C 109.503906 122.925781 108.09375 124.335938 106.347656 124.335938 C 105.449219 124.335938 104.597656 123.949219 104 123.269531 C 103.402344 122.585938 103.101562 121.6875 103.1875 120.835938 L 104.894531 104.28125 C 104.9375 103.8125 104.726562 103.515625 104.597656 103.386719 C 104.46875 103.257812 104.171875 103 103.742188 103 Z M 113.8125 111.066406 L 113.8125 121.09375 C 113.8125 121.605469 114.195312 122.03125 114.707031 122.03125 C 115.050781 122.03125 115.21875 121.859375 115.347656 121.730469 C 115.433594 121.605469 115.605469 121.390625 115.5625 121.050781 L 114.539062 111.023438 C 114.539062 110.851562 114.367188 110.683594 114.152344 110.683594 C 113.984375 110.722656 113.8125 110.894531 113.8125 111.066406 Z M 105.492188 121.050781 C 105.449219 121.390625 105.621094 121.605469 105.707031 121.730469 C 105.792969 121.816406 106.003906 122.03125 106.347656 122.03125 C 106.859375 122.03125 107.242188 121.605469 107.242188 121.09375 L 107.242188 111.066406 C 107.242188 110.894531 107.070312 110.722656 106.902344 110.722656 C 106.730469 110.722656 106.558594 110.851562 106.515625 111.066406 Z M 261.992188 223.660156 C 259.984375 223.660156 258.109375 222.851562 256.742188 221.398438 C 255.378906 219.949219 254.652344 218.027344 254.738281 216.066406 L 258.023438 144.472656 C 258.066406 143.148438 257.296875 141.914062 256.058594 141.445312 C 249.917969 138.96875 245.949219 133.125 245.949219 126.511719 C 245.90625 118.0625 252.691406 101.851562 261.992188 101.851562 C 267.496094 101.851562 271.546875 107.566406 273.46875 110.9375 C 276.242188 115.800781 278.074219 122.074219 278.074219 126.46875 C 278.074219 133.082031 274.109375 138.96875 267.964844 141.402344 C 266.726562 141.914062 265.957031 143.109375 266 144.429688 L 269.285156 216.023438 C 269.371094 218.027344 268.648438 219.90625 267.28125 221.355469 C 265.875 222.851562 263.996094 223.660156 261.992188 223.660156 Z M 261.992188 104.152344 C 255.035156 104.152344 248.210938 118.277344 248.210938 126.46875 C 248.210938 132.140625 251.621094 137.175781 256.871094 139.269531 C 259.003906 140.121094 260.371094 142.253906 260.285156 144.558594 L 257 216.152344 C 256.957031 217.515625 257.425781 218.796875 258.363281 219.820312 C 259.300781 220.800781 260.582031 221.355469 261.949219 221.355469 C 263.3125 221.355469 264.59375 220.800781 265.53125 219.820312 C 266.46875 218.839844 266.984375 217.515625 266.898438 216.152344 L 263.613281 144.558594 C 263.527344 142.253906 264.890625 140.121094 267.023438 139.269531 C 272.316406 137.175781 275.6875 132.140625 275.6875 126.46875 C 275.773438 118.277344 268.945312 104.152344 261.992188 104.152344 Z M 185.191406 221.398438 C 151.613281 221.398438 124.308594 194.09375 124.308594 160.515625 C 124.308594 126.9375 151.613281 99.632812 185.191406 99.632812 C 218.769531 99.632812 246.078125 126.9375 246.078125 160.515625 C 246.078125 194.09375 218.769531 221.398438 185.191406 221.398438 Z M 185.191406 101.933594 C 152.894531 101.933594 126.613281 128.21875 126.613281 160.515625 C 126.613281 192.8125 152.894531 219.09375 185.191406 219.09375 C 217.492188 219.09375 243.773438 192.8125 243.773438 160.515625 C 243.773438 128.21875 217.492188 101.933594 185.191406 101.933594 Z M 185.191406 211.800781 C 183.015625 211.800781 180.796875 211.671875 178.664062 211.371094 C 178.367188 211.332031 178.066406 211.160156 177.898438 210.945312 C 177.726562 210.691406 177.640625 210.390625 177.683594 210.09375 C 177.769531 209.539062 178.238281 209.070312 178.835938 209.070312 C 178.878906 209.070312 178.921875 209.070312 178.964844 209.070312 C 181.011719 209.324219 183.144531 209.453125 185.234375 209.453125 C 185.875 209.453125 186.386719 209.964844 186.386719 210.605469 C 186.34375 211.289062 185.832031 211.800781 185.191406 211.800781 Z M 174.527344 210.648438 C 174.441406 210.648438 174.355469 210.648438 174.269531 210.605469 C 173.5 210.433594 172.777344 210.261719 172.09375 210.09375 C 161.386719 207.277344 151.699219 200.878906 144.832031 192.128906 C 144.660156 191.875 144.574219 191.574219 144.574219 191.277344 C 144.617188 190.980469 144.746094 190.679688 145 190.507812 C 145.214844 190.339844 145.46875 190.253906 145.726562 190.253906 C 146.066406 190.253906 146.410156 190.425781 146.621094 190.679688 C 153.191406 199.042969 162.453125 205.144531 172.648438 207.832031 C 173.332031 208.003906 174.015625 208.171875 174.738281 208.34375 C 175.378906 208.472656 175.761719 209.113281 175.636719 209.707031 C 175.550781 210.261719 175.082031 210.648438 174.527344 210.648438 Z M 185.191406 202.199219 C 162.195312 202.199219 143.507812 183.511719 143.507812 160.515625 C 143.507812 137.519531 162.195312 118.832031 185.191406 118.832031 C 208.1875 118.832031 226.875 137.519531 226.875 160.515625 C 226.875 183.511719 208.1875 202.199219 185.191406 202.199219 Z M 185.191406 121.136719 C 163.476562 121.136719 145.8125 138.796875 145.8125 160.515625 C 145.8125 182.230469 163.476562 199.894531 185.191406 199.894531 C 206.910156 199.894531 224.574219 182.230469 224.574219 160.515625 C 224.574219 138.796875 206.910156 121.136719 185.191406 121.136719 Z M 235.324219 161.667969 C 234.683594 161.667969 234.171875 161.15625 234.171875 160.515625 C 234.171875 144.089844 225.980469 128.816406 212.285156 119.683594 C 211.773438 119.34375 211.601562 118.617188 211.945312 118.105469 C 212.15625 117.765625 212.5 117.59375 212.925781 117.59375 C 213.136719 117.59375 213.351562 117.679688 213.566406 117.808594 C 227.902344 127.363281 236.476562 143.320312 236.476562 160.515625 C 236.476562 161.15625 235.964844 161.667969 235.324219 161.667969 Z M 206.523438 116.269531 C 206.355469 116.269531 206.183594 116.226562 206.054688 116.144531 C 205.375 115.800781 204.691406 115.503906 203.964844 115.203125 C 203.367188 114.949219 203.113281 114.265625 203.324219 113.710938 C 203.496094 113.285156 203.921875 112.984375 204.390625 112.984375 C 204.5625 112.984375 204.691406 113.027344 204.820312 113.070312 C 205.542969 113.371094 206.269531 113.710938 206.996094 114.050781 C 207.550781 114.308594 207.804688 114.992188 207.550781 115.589844 C 207.378906 116.015625 206.953125 116.269531 206.523438 116.269531 Z M 197.992188 113.199219 C 197.90625 113.199219 197.777344 113.199219 197.695312 113.15625 C 193.640625 112.089844 189.417969 111.535156 185.191406 111.535156 C 184.550781 111.535156 184.039062 111.023438 184.039062 110.382812 C 184.039062 109.742188 184.550781 109.230469 185.191406 109.230469 C 189.628906 109.230469 194.023438 109.785156 198.289062 110.9375 C 198.886719 111.109375 199.273438 111.75 199.101562 112.34375 C 198.972656 112.816406 198.503906 113.199219 197.992188 113.199219 Z M 197.992188 113.199219 "/></g><g clip-rule="nonzero" clip-path="url(#ceca351609)"><path style=" stroke:none;fill-rule:nonzero;fill:#9dbf6c;fill-opacity:1;" d="M 225.226562 155.519531 C 224.828125 156.820312 223.730469 157.742188 222.632812 158.457031 C 222.082031 158.816406 221.480469 159.148438 220.925781 159.53125 C 220.90625 159.546875 220.890625 159.5625 220.875 159.574219 C 220.816406 159.617188 220.757812 159.65625 220.699219 159.691406 C 220.15625 160.085938 219.667969 160.535156 219.316406 161.113281 C 218.945312 161.730469 218.796875 162.449219 219.148438 163.113281 C 219.457031 163.679688 220 164.0625 220.535156 164.398438 C 220.789062 164.558594 221.058594 164.722656 221.324219 164.890625 C 221.347656 164.90625 221.371094 164.917969 221.394531 164.933594 C 221.421875 164.949219 221.445312 164.96875 221.46875 164.988281 C 222.175781 165.449219 222.839844 165.980469 223.203125 166.753906 C 223.636719 167.667969 223.496094 168.839844 222.613281 169.429688 C 221.90625 169.902344 221 169.902344 220.199219 170.105469 C 219.84375 170.199219 219.457031 170.320312 219.226562 170.625 C 218.835938 171.132812 218.980469 171.867188 219.179688 172.417969 C 219.5625 173.496094 220.285156 174.390625 220.679688 175.441406 C 220.683594 175.449219 220.6875 175.457031 220.691406 175.464844 C 220.738281 175.546875 220.761719 175.625 220.765625 175.699219 C 220.832031 175.921875 220.886719 176.148438 220.917969 176.390625 C 221.214844 178.75 219.3125 180.746094 217.070312 181.101562 C 215.972656 181.273438 214.835938 181.109375 213.855469 180.585938 C 213.25 180.265625 212.734375 179.796875 212.273438 179.296875 C 212.179688 179.195312 212.085938 179.089844 211.992188 178.980469 C 211.96875 178.957031 211.945312 178.929688 211.925781 178.898438 C 211.558594 178.464844 211.167969 178.019531 210.65625 177.804688 C 209.363281 177.265625 208.992188 179.175781 208.640625 179.984375 C 208.230469 180.925781 207.34375 181.796875 206.234375 181.449219 C 205.773438 181.300781 205.394531 180.972656 205.03125 180.660156 C 204.710938 180.386719 204.355469 180.03125 203.914062 180 C 202.714844 179.90625 202.199219 181.449219 202.085938 182.382812 C 201.992188 183.140625 201.929688 183.902344 201.738281 184.617188 C 201.710938 184.738281 201.679688 184.859375 201.648438 184.980469 C 201.628906 185.046875 201.601562 185.101562 201.566406 185.148438 C 201.421875 185.523438 201.226562 185.882812 200.953125 186.21875 C 200.171875 187.167969 199.023438 187.757812 197.816406 187.925781 C 196.625 188.09375 195.417969 187.875 194.34375 187.347656 C 193.472656 186.917969 192.570312 186.324219 191.984375 185.523438 C 191.378906 186.09375 190.519531 186.144531 189.746094 185.964844 C 189.054688 185.808594 188.417969 185.433594 187.738281 185.21875 C 187.699219 185.210938 187.660156 185.199219 187.617188 185.183594 C 187.390625 185.117188 187.164062 185.074219 186.925781 185.0625 C 186.667969 185.050781 186.210938 185.054688 186.042969 185.292969 C 185.847656 185.578125 186.109375 185.976562 186.25 186.222656 C 186.625 186.886719 186.988281 187.601562 186.570312 188.34375 C 186.21875 188.976562 185.488281 189.238281 184.808594 189.324219 C 184.429688 189.371094 184.074219 189.351562 183.726562 189.292969 C 183.703125 189.289062 183.679688 189.285156 183.65625 189.277344 C 182.34375 189.035156 181.191406 188.199219 179.851562 187.941406 C 178.058594 187.59375 176.585938 188.914062 176.03125 190.523438 C 175.683594 191.527344 175.503906 192.621094 175.113281 193.609375 C 175.101562 193.640625 175.09375 193.675781 175.082031 193.710938 C 175.066406 193.769531 175.039062 193.820312 175.007812 193.859375 C 174.746094 194.457031 174.390625 195.007812 173.855469 195.460938 C 172.59375 196.53125 170.679688 196.882812 169.238281 195.949219 C 168.8125 195.671875 168.484375 195.332031 168.210938 194.949219 C 168.1875 194.925781 168.160156 194.894531 168.136719 194.863281 C 168.035156 194.714844 167.945312 194.5625 167.871094 194.410156 C 167.425781 193.632812 167.113281 192.761719 166.644531 191.984375 C 165.457031 190 163.632812 190.421875 161.742188 190.972656 C 161.546875 191.050781 161.347656 191.117188 161.148438 191.175781 C 161.085938 191.195312 161.027344 191.199219 160.972656 191.195312 C 159.6875 191.566406 158.402344 191.851562 157.285156 191.359375 C 156.507812 191.015625 155.875 190.335938 155.679688 189.496094 C 155.484375 188.679688 155.660156 187.832031 155.859375 187.035156 C 156.058594 186.21875 156.328125 185.367188 156.140625 184.523438 C 155.921875 183.53125 155.042969 183.132812 154.105469 183.0625 C 152.804688 182.96875 151.332031 183.367188 150.148438 182.632812 C 149.515625 182.242188 149.128906 181.519531 149.21875 180.769531 C 149.328125 179.859375 150.007812 179.160156 150.636719 178.554688 C 151.210938 178.003906 152.070312 177.1875 151.40625 176.375 C 150.78125 175.613281 149.644531 175.445312 148.722656 175.429688 C 148.386719 175.425781 148.046875 175.441406 147.710938 175.457031 C 147.691406 175.460938 147.667969 175.464844 147.644531 175.464844 C 147.613281 175.46875 147.585938 175.46875 147.558594 175.46875 C 146.894531 175.503906 146.238281 175.554688 145.574219 175.511719 C 144.554688 175.449219 143.570312 175.175781 142.667969 174.699219 C 141.054688 173.851562 139.753906 172.328125 139.554688 170.472656 C 139.363281 168.660156 140.363281 167.066406 141.851562 166.109375 C 142.289062 165.832031 142.746094 165.621094 143.21875 165.441406 C 143.273438 165.394531 143.34375 165.355469 143.433594 165.339844 C 143.492188 165.328125 143.542969 165.316406 143.601562 165.304688 C 144.457031 165.007812 145.335938 164.773438 146.15625 164.371094 C 146.792969 164.058594 147.398438 163.625 147.675781 162.945312 C 147.972656 162.222656 147.625 161.632812 147.054688 161.179688 C 146.957031 161.097656 146.855469 161.023438 146.75 160.953125 C 146.726562 160.941406 146.703125 160.925781 146.679688 160.914062 C 146.640625 160.890625 146.609375 160.867188 146.578125 160.84375 C 145.523438 160.171875 144.265625 159.777344 143.539062 158.695312 C 142.644531 157.367188 143.710938 156.214844 144.847656 155.550781 C 144.878906 155.527344 144.914062 155.5 144.953125 155.480469 C 145.035156 155.4375 145.125 155.398438 145.207031 155.355469 C 145.261719 155.332031 145.3125 155.308594 145.363281 155.285156 C 146.585938 154.726562 148.621094 153.933594 147.730469 152.222656 C 146.992188 150.800781 145.449219 149.996094 144.453125 148.785156 C 143.3125 147.398438 142.648438 145.648438 142.867188 143.839844 C 143.078125 142.09375 144.0625 140.574219 145.496094 139.574219 C 147.113281 138.449219 149.199219 137.992188 151.148438 138.121094 C 152.207031 138.1875 153.226562 138.445312 154.21875 138.824219 C 154.34375 138.871094 154.46875 138.917969 154.589844 138.96875 C 155.464844 139.320312 156.324219 139.722656 157.253906 139.894531 C 158.03125 140.035156 159.109375 140.039062 159.691406 139.410156 C 159.976562 139.101562 160.019531 138.707031 159.972656 138.296875 C 159.964844 138.273438 159.957031 138.25 159.949219 138.226562 C 159.921875 138.144531 159.917969 138.066406 159.929688 137.996094 C 159.855469 137.609375 159.742188 137.21875 159.714844 136.882812 C 159.65625 136.128906 159.894531 135.351562 160.578125 134.949219 C 161.386719 134.480469 162.429688 134.617188 163.246094 134.984375 C 163.773438 135.222656 164.199219 135.566406 164.578125 135.957031 C 164.625 135.984375 164.671875 136.019531 164.714844 136.070312 C 164.84375 136.21875 164.964844 136.371094 165.082031 136.523438 C 165.582031 137.128906 166.042969 137.777344 166.632812 138.304688 C 166.675781 138.34375 166.71875 138.378906 166.761719 138.414062 C 166.75 138.269531 166.746094 138.128906 166.746094 137.984375 C 166.761719 135.988281 167.769531 133.886719 169.652344 133.066406 C 169.6875 133.046875 169.730469 133.027344 169.777344 133.015625 C 169.820312 132.996094 169.859375 132.988281 169.898438 132.984375 C 171.34375 132.640625 172.902344 132.875 174.175781 133.597656 C 175.679688 133.367188 177.3125 133.710938 178.578125 134.589844 C 179.375 133.785156 180.378906 133.207031 181.546875 133.03125 C 181.582031 133.019531 181.625 133.011719 181.667969 133.015625 C 182.546875 133.023438 183.371094 133.214844 184.113281 133.566406 C 184.148438 133.039062 184.242188 132.527344 184.398438 132.042969 C 184.414062 131.964844 184.429688 131.886719 184.449219 131.808594 C 184.472656 131.726562 184.507812 131.660156 184.550781 131.609375 C 184.816406 130.957031 185.203125 130.359375 185.722656 129.824219 C 187.628906 127.867188 190.648438 127.339844 193.15625 128.363281 C 193.359375 128.445312 193.558594 128.539062 193.753906 128.640625 C 193.78125 128.648438 193.8125 128.664062 193.839844 128.679688 C 193.855469 128.6875 193.871094 128.695312 193.882812 128.707031 C 194.226562 128.886719 194.554688 129.097656 194.867188 129.332031 C 195.402344 129.738281 195.875 130.214844 196.417969 130.613281 C 196.941406 131 197.554688 131.355469 198.226562 131.347656 C 198.855469 131.339844 199.339844 130.976562 199.824219 130.617188 C 199.929688 130.539062 200.039062 130.460938 200.15625 130.382812 C 200.238281 130.316406 200.328125 130.253906 200.421875 130.195312 C 200.46875 130.167969 200.515625 130.148438 200.558594 130.136719 C 201.261719 129.75 202.050781 129.554688 202.773438 130.070312 C 203.554688 130.632812 203.753906 131.679688 204.058594 132.539062 C 204.511719 133.824219 205.746094 133.917969 206.792969 133.234375 C 207.867188 132.527344 208.554688 131.378906 209.703125 130.757812 C 211.988281 129.519531 215.011719 130.109375 216.609375 132.167969 C 217.402344 133.1875 217.726562 134.425781 217.671875 135.703125 C 217.660156 135.898438 217.644531 136.097656 217.621094 136.300781 C 217.625 136.34375 217.617188 136.390625 217.605469 136.4375 C 217.605469 136.441406 217.605469 136.445312 217.601562 136.445312 C 217.449219 137.726562 217.148438 139.105469 217.738281 140.269531 C 218.34375 141.457031 219.570312 141.808594 220.683594 142.359375 C 221.800781 142.914062 222.992188 143.984375 222.757812 145.367188 C 222.597656 146.296875 221.894531 146.683594 221.167969 147.066406 C 221.121094 147.109375 221.058594 147.144531 220.988281 147.171875 C 220.972656 147.175781 220.957031 147.183594 220.941406 147.1875 C 220.652344 147.34375 220.367188 147.511719 220.121094 147.71875 C 219.65625 148.117188 219.390625 148.636719 219.648438 149.234375 C 219.914062 149.832031 220.464844 150.242188 221.011719 150.5625 C 221.382812 150.777344 221.765625 150.960938 222.152344 151.140625 C 222.421875 151.246094 222.683594 151.367188 222.925781 151.507812 C 222.9375 151.515625 222.949219 151.523438 222.957031 151.527344 C 223.375 151.742188 223.777344 151.972656 224.148438 152.265625 C 225.140625 153.0625 225.609375 154.28125 225.226562 155.519531 Z M 225.226562 155.519531 "/></g><path style=" stroke:none;fill-rule:nonzero;fill:#e53c49;fill-opacity:1;" d="M 191.0625 174.875 C 191.058594 174.511719 191.015625 174.152344 190.933594 173.800781 C 190.929688 173.789062 190.929688 173.78125 190.925781 173.769531 C 190.742188 172.992188 190.375 172.253906 189.835938 171.644531 C 189.816406 171.621094 189.796875 171.597656 189.773438 171.574219 C 189.53125 171.308594 189.269531 171.082031 188.996094 170.882812 C 188.355469 170.425781 187.632812 170.136719 186.859375 169.980469 C 186.492188 169.902344 186.109375 169.859375 185.722656 169.835938 C 185.582031 169.828125 185.441406 169.824219 185.300781 169.820312 C 184.335938 170.003906 183.335938 170.320312 182.644531 171.046875 C 182.5 171.195312 182.378906 171.359375 182.269531 171.535156 C 182.054688 171.882812 181.910156 172.28125 181.832031 172.691406 C 181.738281 173.191406 181.75 173.714844 181.863281 174.195312 C 182.289062 176.019531 183.949219 177.859375 185.664062 178.566406 C 186.390625 178.863281 187.28125 179.0625 188.089844 178.976562 C 188.261719 178.957031 188.425781 178.929688 188.589844 178.882812 C 188.753906 178.839844 188.914062 178.773438 189.0625 178.695312 C 189.582031 178.425781 190.003906 177.984375 190.320312 177.492188 C 190.355469 177.4375 190.390625 177.378906 190.421875 177.328125 C 190.445312 177.296875 190.460938 177.265625 190.472656 177.234375 C 190.527344 177.140625 190.574219 177.046875 190.617188 176.949219 C 190.679688 176.820312 190.734375 176.691406 190.78125 176.558594 C 190.972656 176.019531 191.0625 175.449219 191.058594 174.886719 C 191.050781 174.886719 191.046875 174.882812 191.039062 174.878906 C 191.050781 174.875 191.054688 174.875 191.0625 174.875 Z M 188.988281 174.496094 C 188.613281 172.839844 187.125 171.820312 185.441406 172.015625 C 184.902344 172.078125 184.90625 171.230469 185.441406 171.167969 C 187.476562 170.933594 189.355469 172.28125 189.808594 174.269531 C 189.925781 174.804688 189.109375 175.027344 188.988281 174.496094 Z M 189.554688 176.441406 C 189.007812 176.441406 189.007812 175.59375 189.554688 175.59375 C 190.101562 175.59375 190.101562 176.441406 189.554688 176.441406 Z M 199.257812 178.007812 C 198.632812 176.316406 197.054688 175.101562 195.300781 174.78125 C 194.617188 174.707031 193.984375 174.785156 193.414062 175.046875 C 193.109375 175.183594 192.824219 175.378906 192.558594 175.628906 C 192.492188 175.691406 192.429688 175.753906 192.367188 175.820312 C 192.140625 176.0625 191.949219 176.335938 191.789062 176.628906 C 191.625 176.929688 191.488281 177.25 191.386719 177.578125 C 191.238281 178.046875 191.148438 178.53125 191.101562 179.007812 C 191.011719 180.007812 191.160156 181.003906 191.578125 181.839844 C 191.863281 182.144531 192.113281 182.472656 192.300781 182.859375 C 192.632812 183.195312 193.039062 183.476562 193.515625 183.6875 C 195.128906 184.390625 197.003906 184.066406 198.226562 182.785156 C 199.421875 181.535156 199.859375 179.640625 199.257812 178.007812 Z M 197.359375 182.109375 C 196.8125 182.109375 196.8125 181.261719 197.359375 181.261719 C 197.902344 181.261719 197.902344 182.109375 197.359375 182.109375 Z M 198.363281 180.417969 C 198.253906 180.953125 197.4375 180.726562 197.546875 180.195312 C 197.898438 178.523438 196.773438 177.015625 195.117188 176.75 C 194.578125 176.667969 194.808594 175.851562 195.339844 175.933594 C 197.472656 176.273438 198.800781 178.335938 198.363281 180.417969 Z M 174.164062 134.597656 C 174.09375 134.550781 174.027344 134.503906 173.960938 134.460938 C 173.628906 134.25 173.273438 134.078125 172.90625 133.953125 C 172.886719 133.945312 172.867188 133.9375 172.851562 133.933594 C 171.9375 133.632812 170.9375 133.589844 170 133.835938 C 168.195312 134.554688 167.378906 136.882812 167.640625 138.6875 C 167.652344 138.773438 167.667969 138.859375 167.683594 138.945312 C 167.757812 139.316406 167.878906 139.679688 168.039062 140.027344 C 168.382812 140.765625 168.910156 141.414062 169.574219 141.867188 C 169.875 142.074219 170.203125 142.242188 170.558594 142.355469 C 170.71875 142.410156 170.878906 142.449219 171.046875 142.480469 C 172.777344 142.792969 174.667969 141.914062 175.5 140.363281 C 176.363281 138.753906 176.117188 136.59375 174.886719 135.238281 C 174.664062 135 174.421875 134.785156 174.164062 134.597656 Z M 174.464844 140.472656 C 174.386719 140.550781 174.273438 140.597656 174.164062 140.597656 C 174.140625 140.597656 174.113281 140.597656 174.089844 140.597656 C 173.976562 140.597656 173.875 140.546875 173.792969 140.472656 C 173.707031 140.394531 173.671875 140.28125 173.667969 140.171875 C 173.660156 140.066406 173.71875 139.945312 173.792969 139.871094 C 173.871094 139.792969 173.984375 139.746094 174.089844 139.746094 C 174.113281 139.746094 174.140625 139.746094 174.164062 139.746094 C 174.28125 139.746094 174.378906 139.796875 174.464844 139.871094 C 174.546875 139.949219 174.582031 140.0625 174.589844 140.171875 C 174.59375 140.277344 174.539062 140.398438 174.464844 140.472656 Z M 175.046875 138.863281 C 175 139.402344 174.152344 139.40625 174.199219 138.863281 C 174.335938 137.296875 173.285156 135.875 171.691406 135.695312 C 171.152344 135.636719 171.148438 134.785156 171.691406 134.847656 C 173.714844 135.074219 175.226562 136.796875 175.046875 138.863281 Z M 184.519531 143.054688 C 184.78125 142.855469 185.027344 142.636719 185.246094 142.390625 C 185.261719 142.371094 185.277344 142.355469 185.292969 142.339844 C 185.925781 141.609375 186.324219 140.695312 186.472656 139.742188 C 186.578125 139.089844 186.566406 138.421875 186.429688 137.78125 C 186.351562 137.410156 186.234375 137.046875 186.074219 136.707031 C 185.949219 136.4375 185.804688 136.1875 185.648438 135.957031 C 185.484375 135.710938 185.296875 135.484375 185.097656 135.28125 C 184.863281 135.042969 184.609375 134.832031 184.335938 134.652344 C 184.257812 134.601562 184.179688 134.554688 184.101562 134.507812 C 183.394531 134.101562 182.582031 133.878906 181.695312 133.867188 C 180.796875 134.023438 179.917969 134.503906 179.234375 135.128906 C 179.105469 135.242188 178.984375 135.363281 178.871094 135.488281 C 178.765625 135.601562 178.671875 135.722656 178.578125 135.84375 C 177.929688 136.710938 177.582031 137.777344 177.355469 138.828125 C 177.125 139.890625 177 141.109375 177.503906 142.117188 C 177.597656 142.300781 177.710938 142.476562 177.835938 142.636719 C 178.042969 142.898438 178.292969 143.125 178.566406 143.316406 C 178.957031 143.59375 179.402344 143.796875 179.859375 143.929688 C 180.242188 144.042969 180.636719 144.105469 181.035156 144.125 C 182.265625 144.179688 183.519531 143.800781 184.507812 143.066406 C 184.511719 143.0625 184.515625 143.058594 184.519531 143.054688 Z M 182.363281 135.816406 C 181.824219 135.714844 182.054688 134.898438 182.589844 135 C 184.433594 135.359375 185.710938 137.058594 185.546875 138.929688 C 185.5 139.46875 184.648438 139.472656 184.699219 138.929688 C 184.832031 137.402344 183.867188 136.109375 182.363281 135.816406 Z M 184.160156 141.191406 C 184.160156 141.167969 184.160156 141.144531 184.160156 141.117188 C 184.160156 141.003906 184.210938 140.902344 184.285156 140.820312 C 184.359375 140.734375 184.472656 140.699219 184.585938 140.695312 C 184.691406 140.6875 184.8125 140.746094 184.882812 140.820312 C 184.960938 140.898438 185.007812 141.011719 185.007812 141.117188 C 185.007812 141.144531 185.007812 141.167969 185.007812 141.191406 C 185.007812 141.308594 184.960938 141.40625 184.882812 141.492188 C 184.808594 141.574219 184.695312 141.609375 184.585938 141.617188 C 184.480469 141.621094 184.359375 141.566406 184.285156 141.492188 C 184.207031 141.414062 184.160156 141.300781 184.160156 141.191406 Z M 184.160156 141.191406 "/><path style=" stroke:none;fill-rule:nonzero;fill:#f5cf44;fill-opacity:1;" d="M 207.960938 147.074219 C 206.671875 141.746094 201.292969 138.460938 195.964844 139.75 C 190.640625 141.039062 187.355469 146.417969 188.640625 151.742188 C 189.929688 157.070312 195.3125 160.355469 200.636719 159.066406 C 205.964844 157.78125 209.246094 152.398438 207.960938 147.074219 Z M 195.601562 148.414062 C 195.085938 148.300781 195.472656 149.699219 195.457031 149.964844 C 195.4375 150.296875 195.316406 150.625 195.03125 150.816406 C 194.644531 151.082031 194.175781 150.875 193.78125 151.074219 C 193.433594 151.253906 193.242188 151.738281 193.398438 152.097656 C 193.566406 152.484375 193 152.820312 192.832031 152.429688 C 192.390625 151.421875 193.09375 150.378906 194.171875 150.339844 C 194.425781 150.332031 194.695312 150.367188 194.785156 150.066406 C 194.832031 149.902344 194.796875 149.71875 194.765625 149.558594 C 194.703125 149.226562 194.597656 148.882812 194.667969 148.542969 C 194.785156 148.015625 195.242188 147.65625 195.777344 147.773438 C 196.191406 147.863281 196.015625 148.5 195.601562 148.414062 Z M 195.4375 144.210938 C 195.105469 144.210938 194.621094 143.957031 194.347656 144.203125 C 194.171875 144.367188 194.140625 144.714844 194.089844 144.933594 C 193.972656 145.421875 193.777344 145.886719 193.277344 146.078125 C 192.964844 146.199219 192.625 146.183594 192.300781 146.171875 C 192.046875 146.160156 191.417969 146.132812 191.378906 146.503906 C 191.332031 146.921875 190.671875 146.925781 190.71875 146.503906 C 190.78125 145.929688 191.214844 145.621094 191.761719 145.53125 C 192.382812 145.429688 193.164062 145.757812 193.398438 144.976562 C 193.539062 144.523438 193.558594 144 193.957031 143.675781 C 194.195312 143.480469 194.488281 143.433594 194.789062 143.460938 C 194.957031 143.476562 195.769531 143.710938 195.796875 143.390625 C 195.832031 142.96875 196.492188 142.96875 196.457031 143.390625 C 196.414062 143.925781 195.953125 144.210938 195.4375 144.210938 Z M 199.796875 148.105469 C 199.898438 147.949219 200.058594 147.851562 200.226562 147.785156 C 200.382812 147.722656 200.785156 147.746094 200.90625 147.628906 C 201.167969 147.386719 200.574219 146.949219 200.457031 146.777344 C 200.328125 146.589844 200.246094 146.378906 200.269531 146.144531 C 200.308594 145.789062 200.570312 145.570312 200.878906 145.425781 C 201.050781 145.34375 201.292969 145.296875 201.433594 145.164062 C 201.734375 144.875 201.335938 144.515625 201.097656 144.355469 C 200.683594 144.074219 200.242188 143.855469 200.035156 143.371094 C 199.628906 142.4375 200.3125 141.53125 201.253906 141.421875 C 201.675781 141.375 201.671875 142.035156 201.253906 142.082031 C 200.601562 142.15625 200.375 142.925781 200.824219 143.375 C 201.117188 143.664062 201.53125 143.796875 201.820312 144.097656 C 202.300781 144.601562 202.363281 145.363281 201.722656 145.761719 C 201.511719 145.890625 200.855469 146.003906 200.953125 146.339844 C 201.011719 146.519531 201.289062 146.703125 201.40625 146.84375 C 201.523438 146.984375 201.628906 147.140625 201.671875 147.320312 C 201.75 147.632812 201.625 147.957031 201.363281 148.136719 C 201.230469 148.226562 201.074219 148.277344 200.917969 148.3125 C 200.84375 148.328125 200.351562 148.46875 200.351562 148.46875 C 200.71875 148.675781 200.386719 149.246094 200.015625 149.039062 C 199.6875 148.851562 199.601562 148.429688 199.796875 148.105469 Z M 205.46875 150.933594 C 205.023438 150.660156 205.121094 151.582031 205.148438 151.699219 C 205.195312 151.90625 205.257812 152.105469 205.289062 152.3125 C 205.339844 152.679688 205.304688 153.09375 205.046875 153.386719 C 204.804688 153.660156 204.460938 153.734375 204.109375 153.753906 C 203.667969 153.777344 203.222656 153.722656 203.222656 154.296875 C 203.226562 154.980469 203.492188 155.800781 202.742188 156.21875 C 202.421875 156.394531 202.046875 156.402344 201.695312 156.347656 C 201.246094 156.285156 200.597656 155.960938 200.191406 156.285156 C 199.863281 156.546875 199.394531 156.085938 199.722656 155.820312 C 200.109375 155.511719 200.519531 155.457031 201 155.53125 C 201.398438 155.59375 202.132812 155.929688 202.488281 155.597656 C 202.800781 155.308594 202.566406 154.660156 202.566406 154.296875 C 202.5625 153.929688 202.660156 153.570312 202.960938 153.339844 C 203.324219 153.0625 203.75 153.140625 204.175781 153.09375 C 204.960938 153 204.546875 152.136719 204.464844 151.636719 C 204.394531 151.199219 204.460938 150.761719 204.808594 150.464844 C 205.097656 150.214844 205.480469 150.164062 205.804688 150.363281 C 206.164062 150.585938 205.832031 151.15625 205.46875 150.933594 Z M 174.628906 149.394531 C 173.574219 149.035156 172.5 148.867188 171.445312 148.867188 C 167.300781 148.867188 163.425781 151.476562 162.023438 155.613281 C 161.171875 158.128906 161.351562 160.824219 162.527344 163.203125 C 163.699219 165.582031 165.730469 167.363281 168.246094 168.21875 C 170.757812 169.070312 173.453125 168.890625 175.835938 167.714844 C 178.214844 166.542969 179.996094 164.511719 180.847656 161.996094 C 182.609375 156.804688 179.820312 151.152344 174.628906 149.394531 Z M 169.535156 150.511719 C 170.257812 149.859375 170.910156 150.628906 171.257812 151.238281 C 171.449219 151.574219 171.652344 151.691406 172.035156 151.707031 C 172.246094 151.71875 172.453125 151.710938 172.660156 151.773438 C 172.988281 151.875 173.261719 152.117188 173.320312 152.464844 C 173.390625 152.878906 172.753906 153.054688 172.683594 152.636719 C 172.625 152.273438 172.066406 152.378906 171.804688 152.355469 C 171.558594 152.335938 171.335938 152.273438 171.136719 152.128906 C 170.910156 151.960938 170.3125 150.699219 170.003906 150.976562 C 169.6875 151.261719 169.222656 150.792969 169.535156 150.511719 Z M 166.621094 155.140625 C 167.050781 155.023438 167.386719 155.355469 167.433594 155.769531 C 167.464844 156.078125 167.214844 156.316406 167.226562 156.597656 C 167.242188 156.890625 167.625 156.921875 167.839844 157 C 168.320312 157.175781 168.640625 157.488281 168.804688 157.980469 C 168.953125 158.421875 168.902344 159.910156 169.679688 159.730469 C 170.09375 159.636719 170.269531 160.273438 169.855469 160.367188 C 169.339844 160.488281 168.847656 160.242188 168.582031 159.785156 C 168.25 159.21875 168.417969 158.484375 168.066406 157.941406 C 167.777344 157.492188 167.105469 157.59375 166.757812 157.183594 C 166.628906 157.035156 166.558594 156.839844 166.5625 156.640625 C 166.5625 156.550781 166.738281 155.792969 166.796875 155.777344 C 166.386719 155.890625 166.214844 155.257812 166.621094 155.140625 Z M 175.480469 165.230469 C 175.292969 165.648438 174.835938 165.804688 174.398438 165.777344 C 174.078125 165.753906 173.75 165.59375 173.425781 165.660156 C 173.1875 165.707031 172.984375 165.875 172.800781 166.027344 C 172.171875 166.539062 171.449219 167.101562 170.65625 166.511719 C 170.308594 166.253906 170.097656 165.867188 169.847656 165.523438 C 169.472656 165.019531 169.050781 164.875 168.425781 164.929688 C 167.828125 164.980469 167.226562 165.136719 166.648438 164.902344 C 166.21875 164.730469 165.875 164.371094 165.808594 163.90625 C 165.753906 163.488281 166.386719 163.308594 166.445312 163.730469 C 166.601562 164.851562 168.429688 164.160156 169.164062 164.292969 C 169.964844 164.4375 170.296875 165.082031 170.75 165.671875 C 170.984375 165.976562 171.269531 166.222656 171.671875 166.050781 C 172.015625 165.90625 172.28125 165.582031 172.578125 165.363281 C 172.863281 165.15625 173.171875 165.003906 173.527344 164.992188 C 173.914062 164.976562 174.703125 165.359375 174.910156 164.898438 C 175.082031 164.507812 175.652344 164.84375 175.480469 165.230469 Z M 178.957031 157.582031 C 179.257812 157.285156 179.726562 157.75 179.421875 158.046875 C 178.882812 158.574219 178.277344 158.082031 177.929688 157.613281 C 177.746094 157.359375 177.558594 157.21875 177.234375 157.316406 C 177.019531 157.382812 176.835938 157.515625 176.644531 157.628906 C 176.296875 157.839844 175.921875 158.035156 175.503906 157.996094 C 174.636719 157.917969 174.425781 157.0625 174.085938 156.417969 C 173.707031 155.703125 172.84375 155.476562 172.175781 155.945312 C 171.828125 156.191406 171.5 155.621094 171.84375 155.378906 C 172.375 155.003906 173.0625 154.941406 173.664062 155.175781 C 174.394531 155.460938 174.621094 156.054688 174.933594 156.714844 C 175.027344 156.914062 175.152344 157.160156 175.351562 157.277344 C 175.625 157.433594 175.925781 157.285156 176.171875 157.148438 C 176.523438 156.953125 176.835938 156.714844 177.242188 156.644531 C 177.5625 156.585938 177.871094 156.648438 178.128906 156.847656 C 178.257812 156.945312 178.765625 157.765625 178.957031 157.582031 Z M 178.957031 157.582031 "/><path style=" stroke:none;fill-rule:nonzero;fill:#f2e4be;fill-opacity:1;" d="M 188.988281 174.496094 C 188.613281 172.839844 187.125 171.820312 185.441406 172.015625 C 184.902344 172.078125 184.90625 171.230469 185.441406 171.167969 C 187.476562 170.933594 189.355469 172.28125 189.808594 174.269531 C 189.925781 174.804688 189.109375 175.027344 188.988281 174.496094 Z M 189.554688 175.59375 C 189.007812 175.59375 189.007812 176.441406 189.554688 176.441406 C 190.101562 176.441406 190.101562 175.59375 189.554688 175.59375 Z M 182.363281 135.816406 C 183.867188 136.109375 184.832031 137.402344 184.699219 138.929688 C 184.648438 139.472656 185.5 139.46875 185.546875 138.929688 C 185.710938 137.054688 184.433594 135.359375 182.589844 135 C 182.054688 134.898438 181.828125 135.714844 182.363281 135.816406 Z M 184.285156 140.820312 C 184.210938 140.902344 184.160156 141.003906 184.160156 141.117188 C 184.160156 141.144531 184.160156 141.167969 184.160156 141.191406 C 184.160156 141.300781 184.207031 141.414062 184.285156 141.492188 C 184.359375 141.566406 184.476562 141.621094 184.585938 141.617188 C 184.695312 141.609375 184.808594 141.574219 184.882812 141.492188 C 184.960938 141.40625 185.007812 141.308594 185.007812 141.191406 C 185.007812 141.167969 185.007812 141.144531 185.007812 141.117188 C 185.007812 141.011719 184.960938 140.898438 184.882812 140.820312 C 184.8125 140.746094 184.691406 140.691406 184.585938 140.695312 C 184.472656 140.699219 184.359375 140.734375 184.285156 140.820312 Z M 171.6875 135.695312 C 173.285156 135.875 174.335938 137.296875 174.199219 138.863281 C 174.148438 139.40625 175 139.402344 175.046875 138.863281 C 175.226562 136.796875 173.714844 135.074219 171.6875 134.847656 C 171.148438 134.785156 171.152344 135.636719 171.6875 135.695312 Z M 174.164062 139.746094 C 174.140625 139.746094 174.117188 139.746094 174.09375 139.746094 C 173.984375 139.746094 173.871094 139.792969 173.792969 139.871094 C 173.71875 139.945312 173.664062 140.066406 173.667969 140.171875 C 173.675781 140.28125 173.710938 140.394531 173.792969 140.472656 C 173.875 140.546875 173.976562 140.597656 174.09375 140.597656 C 174.117188 140.597656 174.140625 140.597656 174.164062 140.597656 C 174.273438 140.597656 174.386719 140.550781 174.464844 140.472656 C 174.539062 140.398438 174.59375 140.277344 174.589844 140.171875 C 174.585938 140.0625 174.546875 139.949219 174.464844 139.871094 C 174.382812 139.796875 174.28125 139.746094 174.164062 139.746094 Z M 195.339844 175.933594 C 194.808594 175.847656 194.578125 176.664062 195.117188 176.75 C 196.769531 177.015625 197.894531 178.519531 197.546875 180.191406 C 197.4375 180.726562 198.253906 180.953125 198.363281 180.417969 C 198.800781 178.335938 197.472656 176.273438 195.339844 175.933594 Z M 197.359375 181.261719 C 196.8125 181.261719 196.8125 182.109375 197.359375 182.109375 C 197.902344 182.109375 197.902344 181.261719 197.359375 181.261719 Z M 184.90625 157.800781 C 184.933594 158.476562 184.921875 159.191406 184.867188 159.988281 C 184.761719 161.375 184.527344 162.742188 184.15625 164.171875 C 184.039062 164.613281 183.914062 165.058594 183.773438 165.496094 C 183.742188 165.554688 183.71875 165.621094 183.710938 165.691406 C 183.039062 167.777344 182.101562 169.835938 180.871094 171.949219 C 179.34375 174.578125 177.535156 176.871094 175.339844 178.96875 C 174.726562 179.546875 174.132812 180.074219 173.515625 180.574219 C 172.875 181.101562 172.1875 181.617188 171.480469 182.109375 C 170.71875 182.636719 169.96875 183.109375 169.179688 183.554688 C 168.980469 183.667969 168.765625 183.785156 168.566406 183.894531 L 167.914062 184.230469 L 167.800781 184.285156 C 167.378906 184.488281 166.980469 184.679688 166.523438 184.855469 C 162.480469 186.414062 157.910156 184.867188 155.65625 181.171875 C 155.398438 180.753906 155.203125 180.359375 154.988281 179.9375 L 154.933594 179.832031 L 154.621094 179.164062 C 154.523438 178.953125 154.425781 178.734375 154.335938 178.519531 C 153.984375 177.691406 153.675781 176.859375 153.390625 175.976562 C 153.128906 175.15625 152.894531 174.328125 152.707031 173.523438 C 152.527344 172.75 152.371094 171.96875 152.238281 171.136719 C 151.769531 168.140625 151.726562 165.214844 152.117188 162.203125 C 152.496094 159.195312 153.191406 156.519531 154.238281 154.03125 C 154.8125 152.671875 155.460938 151.441406 156.21875 150.28125 C 156.660156 149.613281 157.082031 149.035156 157.515625 148.515625 C 157.757812 148.226562 158.011719 147.945312 158.265625 147.679688 C 158.503906 147.4375 158.789062 147.152344 159.113281 146.890625 C 162.445312 144.222656 166.613281 143.007812 170.855469 143.476562 C 175.097656 143.941406 178.902344 146.03125 181.570312 149.359375 C 182.828125 150.925781 183.792969 152.765625 184.394531 154.722656 C 184.503906 155.269531 184.632812 155.816406 184.777344 156.367188 C 184.789062 156.476562 184.804688 156.582031 184.816406 156.679688 C 184.863281 157.046875 184.890625 157.425781 184.90625 157.800781 Z M 174.933594 148.5 C 169.25 146.574219 163.0625 149.628906 161.136719 155.308594 C 160.203125 158.0625 160.398438 161.015625 161.683594 163.621094 C 162.96875 166.222656 165.195312 168.175781 167.945312 169.109375 C 169.089844 169.496094 170.273438 169.691406 171.449219 169.691406 C 173.097656 169.691406 174.734375 169.308594 176.253906 168.558594 C 178.859375 167.273438 180.808594 165.050781 181.742188 162.296875 C 183.667969 156.617188 180.613281 150.429688 174.933594 148.5 Z M 216.316406 163.410156 C 216.105469 164.226562 215.886719 164.988281 215.632812 165.742188 C 215.371094 166.53125 215.070312 167.332031 214.734375 168.125 C 214.371094 168.980469 213.988281 169.78125 213.5625 170.578125 C 213.457031 170.78125 213.335938 170.992188 213.226562 171.191406 L 212.855469 171.824219 L 212.789062 171.929688 C 212.542969 172.328125 212.308594 172.703125 212.015625 173.097656 C 211.386719 173.941406 210.636719 174.648438 209.800781 175.207031 C 209.753906 175.226562 209.710938 175.257812 209.671875 175.292969 C 207.089844 176.953125 203.75 177.21875 200.859375 175.792969 C 200.421875 175.574219 200.039062 175.347656 199.636719 175.109375 L 199.53125 175.046875 L 198.917969 174.65625 L 198.910156 174.652344 C 198.714844 174.523438 198.515625 174.390625 198.328125 174.257812 C 197.585938 173.742188 196.882812 173.207031 196.167969 172.613281 C 195.507812 172.0625 194.871094 171.484375 194.277344 170.90625 C 193.710938 170.347656 193.164062 169.769531 192.609375 169.140625 C 190.609375 166.859375 189.011719 164.410156 187.726562 161.65625 C 186.851562 159.789062 186.183594 157.980469 185.703125 156.171875 C 185.558594 155.613281 185.425781 155.054688 185.316406 154.492188 C 185.253906 154.199219 185.199219 153.910156 185.152344 153.613281 C 184.90625 152.15625 184.800781 150.773438 184.820312 149.386719 C 184.835938 148.585938 184.886719 147.871094 184.976562 147.199219 C 185.023438 146.828125 185.085938 146.453125 185.160156 146.089844 C 185.230469 145.761719 185.320312 145.371094 185.457031 144.972656 C 186.222656 142.773438 187.464844 140.738281 189.046875 139.089844 C 195.152344 132.738281 205.285156 132.539062 211.636719 138.644531 C 211.9375 138.933594 212.199219 139.242188 212.40625 139.503906 C 212.640625 139.792969 212.867188 140.097656 213.082031 140.40625 C 213.464844 140.964844 213.839844 141.578125 214.214844 142.277344 C 214.867188 143.503906 215.40625 144.785156 215.851562 146.191406 C 216.671875 148.765625 217.125 151.492188 217.234375 154.523438 C 217.355469 157.558594 217.050781 160.464844 216.316406 163.410156 Z M 208.875 146.851562 C 207.464844 141.023438 201.574219 137.425781 195.746094 138.832031 C 189.914062 140.242188 186.316406 146.132812 187.726562 151.964844 C 188.929688 156.941406 193.394531 160.289062 198.300781 160.289062 C 199.144531 160.289062 200 160.191406 200.855469 159.984375 C 206.6875 158.574219 210.285156 152.683594 208.875 146.851562 Z M 208.875 146.851562 "/><g clip-rule="nonzero" clip-path="url(#3bf8275b5c)"><path style=" stroke:none;fill-rule:nonzero;fill:#16890c;fill-opacity:1;" d="M 195.746094 138.832031 C 189.914062 140.242188 186.316406 146.132812 187.726562 151.964844 C 188.929688 156.941406 193.394531 160.289062 198.300781 160.289062 C 199.144531 160.289062 200 160.191406 200.855469 159.984375 C 206.6875 158.574219 210.285156 152.683594 208.875 146.851562 C 207.464844 141.023438 201.578125 137.425781 195.746094 138.832031 Z M 200.636719 159.066406 C 195.3125 160.355469 189.929688 157.070312 188.640625 151.742188 C 187.355469 146.417969 190.640625 141.039062 195.964844 139.75 C 201.292969 138.460938 206.671875 141.746094 207.960938 147.074219 C 209.246094 152.398438 205.964844 157.78125 200.636719 159.066406 Z M 169.535156 150.511719 C 170.257812 149.859375 170.910156 150.628906 171.257812 151.238281 C 171.449219 151.574219 171.652344 151.691406 172.035156 151.707031 C 172.246094 151.71875 172.453125 151.710938 172.660156 151.773438 C 172.988281 151.875 173.261719 152.117188 173.320312 152.464844 C 173.390625 152.878906 172.753906 153.054688 172.683594 152.636719 C 172.625 152.273438 172.066406 152.378906 171.804688 152.355469 C 171.558594 152.335938 171.335938 152.273438 171.136719 152.128906 C 170.910156 151.960938 170.3125 150.699219 170.003906 150.976562 C 169.6875 151.261719 169.222656 150.792969 169.535156 150.511719 Z M 205.46875 150.933594 C 205.023438 150.660156 205.121094 151.582031 205.148438 151.699219 C 205.195312 151.90625 205.257812 152.105469 205.289062 152.3125 C 205.339844 152.679688 205.304688 153.09375 205.046875 153.386719 C 204.804688 153.660156 204.460938 153.734375 204.109375 153.753906 C 203.667969 153.777344 203.222656 153.722656 203.222656 154.296875 C 203.226562 154.980469 203.492188 155.800781 202.742188 156.21875 C 202.421875 156.394531 202.046875 156.402344 201.695312 156.347656 C 201.246094 156.285156 200.597656 155.960938 200.191406 156.285156 C 199.863281 156.546875 199.394531 156.085938 199.722656 155.820312 C 200.109375 155.511719 200.519531 155.457031 201 155.53125 C 201.398438 155.59375 202.132812 155.929688 202.488281 155.597656 C 202.800781 155.308594 202.566406 154.660156 202.566406 154.296875 C 202.5625 153.929688 202.660156 153.570312 202.960938 153.339844 C 203.324219 153.0625 203.75 153.140625 204.175781 153.09375 C 204.960938 153 204.546875 152.136719 204.464844 151.636719 C 204.394531 151.199219 204.460938 150.761719 204.808594 150.464844 C 205.097656 150.214844 205.480469 150.164062 205.804688 150.363281 C 206.164062 150.585938 205.832031 151.15625 205.46875 150.933594 Z M 199.796875 148.105469 C 199.898438 147.949219 200.058594 147.851562 200.226562 147.785156 C 200.382812 147.722656 200.785156 147.746094 200.90625 147.628906 C 201.167969 147.386719 200.574219 146.949219 200.457031 146.777344 C 200.328125 146.589844 200.246094 146.378906 200.269531 146.144531 C 200.308594 145.789062 200.570312 145.570312 200.878906 145.425781 C 201.050781 145.34375 201.292969 145.296875 201.433594 145.164062 C 201.734375 144.875 201.335938 144.515625 201.097656 144.355469 C 200.683594 144.074219 200.242188 143.855469 200.035156 143.371094 C 199.628906 142.4375 200.3125 141.53125 201.253906 141.421875 C 201.675781 141.375 201.671875 142.035156 201.253906 142.082031 C 200.601562 142.15625 200.375 142.925781 200.824219 143.375 C 201.117188 143.664062 201.53125 143.796875 201.820312 144.097656 C 202.300781 144.601562 202.363281 145.363281 201.722656 145.761719 C 201.511719 145.890625 200.855469 146.003906 200.953125 146.339844 C 201.011719 146.519531 201.289062 146.703125 201.40625 146.84375 C 201.523438 146.984375 201.628906 147.140625 201.671875 147.320312 C 201.75 147.632812 201.625 147.957031 201.363281 148.136719 C 201.230469 148.226562 201.074219 148.277344 200.917969 148.3125 C 200.84375 148.328125 200.351562 148.46875 200.351562 148.46875 C 200.71875 148.675781 200.386719 149.246094 200.015625 149.039062 C 199.6875 148.851562 199.601562 148.429688 199.796875 148.105469 Z M 195.601562 148.414062 C 195.085938 148.300781 195.472656 149.699219 195.457031 149.964844 C 195.4375 150.296875 195.316406 150.625 195.03125 150.816406 C 194.644531 151.082031 194.175781 150.875 193.78125 151.074219 C 193.433594 151.253906 193.242188 151.738281 193.398438 152.097656 C 193.566406 152.484375 193 152.820312 192.832031 152.429688 C 192.390625 151.421875 193.09375 150.378906 194.171875 150.339844 C 194.425781 150.332031 194.695312 150.367188 194.785156 150.066406 C 194.832031 149.902344 194.796875 149.71875 194.765625 149.558594 C 194.703125 149.226562 194.597656 148.882812 194.667969 148.542969 C 194.785156 148.015625 195.242188 147.65625 195.777344 147.773438 C 196.191406 147.863281 196.015625 148.5 195.601562 148.414062 Z M 196.457031 143.386719 C 196.414062 143.925781 195.953125 144.210938 195.4375 144.210938 C 195.105469 144.210938 194.621094 143.957031 194.347656 144.203125 C 194.171875 144.367188 194.140625 144.714844 194.089844 144.933594 C 193.972656 145.421875 193.777344 145.886719 193.277344 146.078125 C 192.964844 146.199219 192.625 146.183594 192.300781 146.171875 C 192.046875 146.160156 191.417969 146.132812 191.378906 146.503906 C 191.332031 146.921875 190.671875 146.925781 190.71875 146.503906 C 190.78125 145.929688 191.214844 145.621094 191.761719 145.53125 C 192.382812 145.429688 193.164062 145.757812 193.398438 144.976562 C 193.539062 144.523438 193.558594 144 193.957031 143.675781 C 194.195312 143.480469 194.488281 143.433594 194.789062 143.460938 C 194.957031 143.476562 195.769531 143.710938 195.796875 143.390625 C 195.832031 142.96875 196.492188 142.964844 196.457031 143.386719 Z M 224.148438 152.273438 C 223.777344 151.980469 223.375 151.746094 222.957031 151.535156 C 222.949219 151.527344 222.9375 151.523438 222.925781 151.515625 C 222.683594 151.375 222.421875 151.253906 222.152344 151.148438 C 221.765625 150.96875 221.382812 150.785156 221.011719 150.570312 C 220.464844 150.25 219.914062 149.839844 219.648438 149.238281 C 219.390625 148.640625 219.65625 148.128906 220.121094 147.726562 C 220.367188 147.519531 220.652344 147.351562 220.941406 147.195312 C 220.957031 147.191406 220.972656 147.183594 220.988281 147.179688 C 221.0625 147.152344 221.121094 147.117188 221.167969 147.070312 C 221.890625 146.6875 222.597656 146.304688 222.757812 145.375 C 222.992188 143.988281 221.800781 142.921875 220.683594 142.367188 C 219.570312 141.816406 218.34375 141.464844 217.738281 140.277344 C 217.148438 139.113281 217.449219 137.734375 217.601562 136.453125 C 217.601562 136.449219 217.605469 136.445312 217.605469 136.445312 C 217.617188 136.398438 217.621094 136.351562 217.621094 136.308594 C 217.644531 136.105469 217.660156 135.90625 217.671875 135.710938 C 217.726562 134.429688 217.402344 133.195312 216.609375 132.175781 C 215.011719 130.117188 211.988281 129.527344 209.703125 130.761719 C 208.554688 131.386719 207.867188 132.535156 206.792969 133.242188 C 205.746094 133.925781 204.511719 133.828125 204.058594 132.542969 C 203.757812 131.6875 203.558594 130.640625 202.773438 130.078125 C 202.050781 129.558594 201.261719 129.757812 200.558594 130.144531 C 200.515625 130.15625 200.472656 130.175781 200.421875 130.203125 C 200.328125 130.257812 200.238281 130.324219 200.15625 130.390625 C 200.039062 130.46875 199.929688 130.546875 199.824219 130.625 C 199.339844 130.984375 198.855469 131.347656 198.226562 131.355469 C 197.554688 131.359375 196.941406 131.007812 196.417969 130.621094 C 195.875 130.222656 195.402344 129.746094 194.867188 129.339844 C 194.554688 129.101562 194.226562 128.894531 193.882812 128.710938 C 193.871094 128.703125 193.855469 128.695312 193.839844 128.6875 C 193.8125 128.667969 193.78125 128.65625 193.753906 128.644531 C 193.558594 128.546875 193.359375 128.453125 193.15625 128.371094 C 190.652344 127.351562 187.628906 127.875 185.722656 129.832031 C 185.203125 130.367188 184.816406 130.964844 184.554688 131.617188 C 184.507812 131.667969 184.472656 131.734375 184.453125 131.816406 C 184.433594 131.894531 184.414062 131.972656 184.398438 132.050781 C 184.246094 132.535156 184.152344 133.046875 184.113281 133.574219 C 183.375 133.226562 182.546875 133.03125 181.671875 133.023438 C 181.625 133.023438 181.585938 133.027344 181.546875 133.039062 C 180.378906 133.214844 179.378906 133.792969 178.582031 134.597656 C 177.316406 133.71875 175.679688 133.375 174.175781 133.605469 C 172.902344 132.878906 171.34375 132.648438 169.902344 132.992188 C 169.863281 132.996094 169.820312 133.003906 169.777344 133.023438 C 169.730469 133.035156 169.6875 133.050781 169.652344 133.074219 C 167.769531 133.894531 166.761719 135.996094 166.75 137.988281 C 166.746094 138.132812 166.753906 138.277344 166.765625 138.421875 C 166.71875 138.386719 166.675781 138.347656 166.636719 138.3125 C 166.042969 137.785156 165.582031 137.136719 165.082031 136.53125 C 164.96875 136.378906 164.84375 136.226562 164.71875 136.078125 C 164.671875 136.027344 164.625 135.992188 164.578125 135.964844 C 164.199219 135.574219 163.777344 135.230469 163.246094 134.992188 C 162.429688 134.625 161.390625 134.488281 160.582031 134.957031 C 159.898438 135.359375 159.660156 136.136719 159.71875 136.890625 C 159.746094 137.226562 159.859375 137.617188 159.929688 138.003906 C 159.921875 138.074219 159.925781 138.152344 159.953125 138.234375 C 159.960938 138.257812 159.96875 138.277344 159.972656 138.300781 C 160.019531 138.714844 159.976562 139.105469 159.691406 139.417969 C 159.109375 140.046875 158.03125 140.042969 157.257812 139.902344 C 156.328125 139.730469 155.464844 139.328125 154.59375 138.976562 C 154.46875 138.925781 154.34375 138.878906 154.21875 138.828125 C 153.230469 138.453125 152.210938 138.195312 151.148438 138.128906 C 149.199219 138 147.117188 138.457031 145.5 139.582031 C 144.066406 140.582031 143.082031 142.097656 142.867188 143.84375 C 142.648438 145.65625 143.3125 147.40625 144.457031 148.792969 C 145.453125 150.003906 146.992188 150.804688 147.734375 152.226562 C 148.625 153.9375 146.585938 154.730469 145.367188 155.289062 C 145.3125 155.3125 145.261719 155.339844 145.210938 155.363281 C 145.125 155.40625 145.039062 155.445312 144.957031 155.488281 C 144.914062 155.507812 144.878906 155.53125 144.851562 155.558594 C 143.710938 156.222656 142.644531 157.378906 143.539062 158.703125 C 144.269531 159.785156 145.527344 160.179688 146.582031 160.851562 C 146.609375 160.875 146.644531 160.898438 146.679688 160.921875 C 146.703125 160.933594 146.726562 160.945312 146.75 160.960938 C 146.855469 161.03125 146.957031 161.109375 147.058594 161.1875 C 147.625 161.644531 147.972656 162.230469 147.675781 162.957031 C 147.398438 163.632812 146.792969 164.066406 146.15625 164.378906 C 145.335938 164.78125 144.457031 165.019531 143.601562 165.3125 C 143.546875 165.324219 143.492188 165.335938 143.4375 165.347656 C 143.347656 165.367188 143.277344 165.402344 143.222656 165.453125 C 142.75 165.628906 142.289062 165.839844 141.855469 166.117188 C 140.367188 167.074219 139.363281 168.667969 139.558594 170.480469 C 139.757812 172.335938 141.058594 173.859375 142.667969 174.707031 C 143.570312 175.183594 144.554688 175.457031 145.574219 175.519531 C 146.238281 175.5625 146.898438 175.511719 147.558594 175.472656 C 147.589844 175.476562 147.617188 175.476562 147.648438 175.472656 C 147.667969 175.472656 147.691406 175.46875 147.714844 175.464844 C 148.050781 175.449219 148.386719 175.433594 148.726562 175.4375 C 149.644531 175.449219 150.785156 175.617188 151.40625 176.382812 C 152.070312 177.195312 151.214844 178.011719 150.640625 178.5625 C 150.007812 179.164062 149.328125 179.867188 149.222656 180.773438 C 149.128906 181.523438 149.515625 182.246094 150.152344 182.640625 C 151.332031 183.375 152.808594 182.976562 154.105469 183.070312 C 155.046875 183.140625 155.925781 183.539062 156.140625 184.53125 C 156.328125 185.375 156.058594 186.226562 155.859375 187.039062 C 155.664062 187.839844 155.488281 188.6875 155.679688 189.503906 C 155.878906 190.339844 156.507812 191.023438 157.285156 191.367188 C 158.402344 191.859375 159.6875 191.570312 160.976562 191.203125 C 161.03125 191.207031 161.085938 191.199219 161.148438 191.183594 C 161.351562 191.125 161.546875 191.058594 161.742188 190.980469 C 163.636719 190.429688 165.457031 190.011719 166.648438 191.992188 C 167.113281 192.765625 167.425781 193.640625 167.871094 194.417969 C 167.945312 194.570312 168.035156 194.722656 168.140625 194.867188 C 168.164062 194.902344 168.1875 194.933594 168.214844 194.957031 C 168.488281 195.335938 168.816406 195.679688 169.238281 195.953125 C 170.679688 196.886719 172.59375 196.535156 173.855469 195.46875 C 174.390625 195.011719 174.746094 194.464844 175.011719 193.867188 C 175.042969 193.824219 175.066406 193.773438 175.085938 193.714844 C 175.097656 193.683594 175.105469 193.648438 175.117188 193.613281 C 175.503906 192.628906 175.6875 191.53125 176.035156 190.53125 C 176.589844 188.917969 178.0625 187.597656 179.851562 187.945312 C 181.191406 188.207031 182.34375 189.039062 183.65625 189.285156 C 183.679688 189.289062 183.703125 189.292969 183.726562 189.296875 C 184.074219 189.355469 184.433594 189.375 184.8125 189.328125 C 185.492188 189.246094 186.21875 188.980469 186.574219 188.347656 C 186.988281 187.605469 186.628906 186.890625 186.253906 186.230469 C 186.109375 185.980469 185.847656 185.585938 186.046875 185.300781 C 186.21875 185.058594 186.671875 185.058594 186.929688 185.066406 C 187.167969 185.078125 187.394531 185.125 187.621094 185.1875 C 187.664062 185.207031 187.703125 185.21875 187.742188 185.222656 C 188.421875 185.4375 189.058594 185.808594 189.75 185.972656 C 190.523438 186.148438 191.382812 186.097656 191.988281 185.53125 C 192.574219 186.332031 193.476562 186.925781 194.347656 187.351562 C 195.421875 187.882812 196.632812 188.097656 197.820312 187.929688 C 199.027344 187.761719 200.179688 187.175781 200.953125 186.222656 C 201.230469 185.886719 201.425781 185.527344 201.570312 185.15625 C 201.605469 185.109375 201.632812 185.050781 201.652344 184.984375 C 201.683594 184.863281 201.714844 184.742188 201.742188 184.625 C 201.933594 183.90625 201.992188 183.144531 202.085938 182.386719 C 202.203125 181.457031 202.71875 179.910156 203.917969 180.003906 C 204.359375 180.039062 204.714844 180.390625 205.035156 180.667969 C 205.394531 180.976562 205.773438 181.304688 206.238281 181.453125 C 207.347656 181.804688 208.234375 180.933594 208.644531 179.992188 C 208.996094 179.183594 209.367188 177.269531 210.660156 177.808594 C 211.171875 178.023438 211.5625 178.46875 211.929688 178.902344 C 211.949219 178.933594 211.972656 178.960938 211.996094 178.984375 C 212.089844 179.09375 212.179688 179.203125 212.277344 179.304688 C 212.734375 179.804688 213.253906 180.269531 213.859375 180.589844 C 214.839844 181.113281 215.976562 181.28125 217.074219 181.105469 C 219.316406 180.753906 221.21875 178.757812 220.921875 176.394531 C 220.890625 176.15625 220.835938 175.925781 220.769531 175.703125 C 220.765625 175.628906 220.742188 175.546875 220.695312 175.46875 C 220.691406 175.460938 220.683594 175.453125 220.683594 175.449219 C 220.289062 174.394531 219.566406 173.5 219.183594 172.421875 C 218.984375 171.871094 218.839844 171.136719 219.230469 170.628906 C 219.460938 170.328125 219.847656 170.203125 220.203125 170.113281 C 221.003906 169.910156 221.910156 169.910156 222.617188 169.433594 C 223.5 168.84375 223.640625 167.675781 223.207031 166.757812 C 222.84375 165.988281 222.179688 165.453125 221.472656 164.992188 C 221.449219 164.972656 221.425781 164.953125 221.398438 164.9375 C 221.375 164.921875 221.351562 164.910156 221.328125 164.898438 C 221.0625 164.726562 220.792969 164.566406 220.539062 164.402344 C 220.003906 164.066406 219.457031 163.6875 219.152344 163.117188 C 218.800781 162.457031 218.949219 161.738281 219.320312 161.121094 C 219.671875 160.539062 220.160156 160.089844 220.703125 159.695312 C 220.761719 159.660156 220.824219 159.621094 220.878906 159.578125 C 220.898438 159.566406 220.914062 159.550781 220.925781 159.539062 C 221.484375 159.15625 222.082031 158.820312 222.636719 158.460938 C 223.734375 157.746094 224.832031 156.824219 225.230469 155.527344 C 225.609375 154.28125 225.140625 153.0625 224.148438 152.273438 Z M 219.605469 150.78125 C 219.011719 150.835938 218.4375 150.996094 217.925781 151.277344 C 217.8125 150.371094 217.660156 149.488281 217.476562 148.625 C 217.878906 148.472656 218.273438 148.308594 218.667969 148.132812 C 218.4375 148.878906 218.648438 149.683594 219.203125 150.363281 C 219.328125 150.515625 219.460938 150.652344 219.605469 150.78125 Z M 218.261719 163.550781 C 217.9375 163.472656 217.613281 163.421875 217.289062 163.402344 C 217.484375 162.59375 217.648438 161.789062 217.78125 160.984375 C 217.816406 160.964844 217.855469 160.941406 217.890625 160.910156 C 218.085938 160.742188 218.300781 160.617188 218.53125 160.511719 C 217.945312 161.433594 217.75 162.5625 218.261719 163.550781 Z M 218.917969 142.644531 C 219.914062 143.125 221.671875 143.609375 221.792969 144.953125 C 221.855469 145.652344 221.195312 145.980469 220.664062 146.246094 C 219.5 146.648438 218.402344 147.226562 217.25 147.65625 C 217.101562 147.066406 216.9375 146.484375 216.753906 145.90625 C 216.296875 144.46875 215.722656 143.09375 215.050781 141.832031 C 214.871094 141.496094 214.6875 141.179688 214.507812 140.878906 C 215.25 140.386719 215.902344 139.742188 216.429688 139.007812 C 216.445312 139.359375 216.496094 139.703125 216.59375 140.050781 C 216.9375 141.238281 217.816406 142.121094 218.917969 142.644531 Z M 208.578125 132.976562 C 209.039062 132.511719 209.488281 132.027344 210.058594 131.695312 C 210.6875 131.328125 211.410156 131.132812 212.136719 131.109375 C 214.683594 131.023438 216.738281 132.988281 216.683594 135.539062 C 216.679688 135.761719 216.664062 135.988281 216.640625 136.210938 C 216.277344 137.746094 215.292969 139.164062 213.976562 140.046875 C 213.9375 139.984375 213.898438 139.929688 213.859375 139.871094 C 213.628906 139.542969 213.390625 139.21875 213.144531 138.910156 C 212.910156 138.625 212.628906 138.289062 212.289062 137.964844 C 210.632812 136.371094 208.730469 135.183594 206.710938 134.398438 C 207.421875 134.082031 208.03125 133.53125 208.578125 132.976562 Z M 200.921875 131.054688 C 200.949219 131.039062 200.972656 131.023438 200.992188 131 C 201.269531 130.832031 201.574219 130.710938 201.886719 130.75 C 202.703125 130.859375 202.890625 132.234375 203.117188 132.847656 C 203.199219 133.078125 203.304688 133.292969 203.429688 133.492188 C 202.316406 133.304688 201.191406 133.226562 200.0625 133.261719 C 200 132.460938 200.230469 131.464844 200.921875 131.054688 Z M 185.402344 132.085938 C 185.417969 132.035156 185.4375 131.988281 185.460938 131.941406 C 185.992188 130.703125 187.09375 129.75 188.332031 129.253906 C 189.566406 128.757812 190.929688 128.707031 192.207031 129.078125 C 192.605469 129.195312 192.984375 129.351562 193.351562 129.542969 C 194.617188 130.277344 195.175781 131.695312 195.519531 133.050781 C 195.675781 133.667969 196.628906 133.40625 196.472656 132.785156 C 196.371094 132.386719 196.25 131.984375 196.101562 131.59375 C 196.972656 132.167969 197.984375 132.554688 199.03125 132.21875 C 199.074219 132.203125 199.117188 132.1875 199.160156 132.171875 C 199.085938 132.550781 199.0625 132.941406 199.089844 133.316406 C 195.152344 133.660156 191.320312 135.371094 188.375 138.441406 C 188.0625 138.761719 187.765625 139.101562 187.480469 139.449219 C 187.445312 139.402344 187.410156 139.355469 187.375 139.304688 C 187.425781 138.582031 187.351562 137.855469 187.148438 137.160156 C 186.804688 135.992188 186.144531 135.019531 185.277344 134.304688 C 185.1875 133.554688 185.21875 132.808594 185.402344 132.085938 Z M 178.867188 135.488281 C 178.980469 135.363281 179.101562 135.242188 179.230469 135.125 C 179.917969 134.503906 180.792969 134.019531 181.691406 133.867188 C 182.578125 133.878906 183.394531 134.101562 184.097656 134.507812 C 184.179688 134.550781 184.257812 134.601562 184.332031 134.652344 C 184.609375 134.832031 184.863281 135.042969 185.097656 135.28125 C 185.296875 135.484375 185.480469 135.710938 185.648438 135.953125 C 185.804688 136.1875 185.945312 136.4375 186.070312 136.703125 C 186.234375 137.046875 186.351562 137.410156 186.425781 137.777344 C 186.5625 138.421875 186.574219 139.089844 186.472656 139.738281 C 186.324219 140.691406 185.921875 141.609375 185.292969 142.335938 C 185.277344 142.355469 185.261719 142.371094 185.246094 142.386719 C 185.023438 142.632812 184.78125 142.855469 184.519531 143.050781 C 184.515625 143.054688 184.507812 143.058594 184.503906 143.0625 C 183.515625 143.800781 182.261719 144.179688 181.03125 144.121094 C 180.632812 144.105469 180.238281 144.039062 179.855469 143.929688 C 179.398438 143.792969 178.957031 143.589844 178.5625 143.316406 C 178.289062 143.125 178.042969 142.898438 177.832031 142.636719 C 177.707031 142.472656 177.59375 142.300781 177.5 142.113281 C 176.996094 141.105469 177.125 139.890625 177.351562 138.828125 C 177.582031 137.773438 177.925781 136.710938 178.574219 135.839844 C 178.667969 135.71875 178.765625 135.601562 178.867188 135.488281 Z M 183.925781 151.191406 C 183.457031 150.335938 182.917969 149.523438 182.3125 148.769531 C 180.953125 147.070312 179.3125 145.679688 177.476562 144.636719 C 177.679688 144.433594 177.871094 144.21875 178.054688 143.992188 C 178.273438 144.148438 178.5 144.285156 178.742188 144.402344 C 180.582031 145.292969 182.785156 145.105469 184.511719 144.074219 C 184.613281 144.054688 184.714844 144.035156 184.8125 144.011719 C 184.726562 144.230469 184.644531 144.445312 184.570312 144.664062 L 184.570312 144.667969 C 184.414062 145.113281 184.316406 145.539062 184.242188 145.898438 C 184.160156 146.285156 184.09375 146.683594 184.042969 147.078125 C 183.953125 147.785156 183.898438 148.535156 183.882812 149.371094 C 183.871094 149.976562 183.886719 150.582031 183.925781 151.191406 Z M 177.320312 143.332031 C 177.082031 143.621094 176.828125 143.898438 176.550781 144.148438 C 175.613281 143.691406 174.625 143.320312 173.609375 143.039062 C 174.421875 142.730469 175.164062 142.222656 175.710938 141.550781 C 175.949219 141.261719 176.148438 140.949219 176.3125 140.617188 C 176.324219 140.996094 176.371094 141.367188 176.464844 141.734375 C 176.621094 142.339844 176.917969 142.878906 177.320312 143.332031 Z M 175.351562 134.503906 C 176.210938 134.535156 177.15625 134.832031 177.941406 135.34375 C 177.441406 136.015625 177.0625 136.78125 176.808594 137.566406 C 176.71875 136.839844 176.488281 136.128906 176.113281 135.496094 C 175.898438 135.128906 175.640625 134.796875 175.351562 134.503906 Z M 170 133.835938 C 170.9375 133.589844 171.9375 133.632812 172.847656 133.933594 C 172.867188 133.9375 172.886719 133.945312 172.902344 133.953125 C 173.273438 134.078125 173.628906 134.25 173.957031 134.460938 C 174.027344 134.503906 174.09375 134.550781 174.160156 134.597656 C 174.421875 134.785156 174.664062 135 174.882812 135.238281 C 176.113281 136.59375 176.359375 138.753906 175.496094 140.363281 C 174.660156 141.914062 172.773438 142.796875 171.042969 142.480469 C 170.875 142.449219 170.714844 142.410156 170.554688 142.359375 C 170.199219 142.242188 169.871094 142.078125 169.570312 141.871094 C 168.90625 141.417969 168.378906 140.765625 168.035156 140.027344 C 167.875 139.683594 167.753906 139.316406 167.683594 138.945312 C 167.664062 138.859375 167.648438 138.777344 167.636719 138.691406 C 167.378906 136.886719 168.195312 134.554688 170 133.835938 Z M 167.019531 139.730469 C 167.363281 140.796875 168.019531 141.761719 168.90625 142.433594 C 168.347656 142.441406 167.789062 142.472656 167.238281 142.535156 C 167.242188 142.492188 167.238281 142.453125 167.234375 142.410156 C 167.089844 141.414062 166.890625 140.433594 166.589844 139.496094 C 166.722656 139.582031 166.867188 139.660156 167.019531 139.730469 Z M 144.71875 147.464844 C 144.101562 146.496094 143.753906 145.386719 143.828125 144.195312 C 144.085938 140.015625 149.097656 138.472656 152.578125 139.339844 C 153.171875 139.488281 153.753906 139.714844 154.335938 139.949219 C 155.660156 140.640625 156.980469 141.59375 157.683594 142.9375 C 157.980469 143.503906 158.835938 143.003906 158.539062 142.441406 C 158.246094 141.878906 157.855469 141.378906 157.40625 140.925781 C 157.726562 140.964844 158.046875 140.972656 158.378906 140.949219 C 159.15625 140.882812 159.953125 140.625 160.472656 140.023438 C 160.519531 140.246094 160.558594 140.472656 160.585938 140.703125 C 160.679688 141.488281 160.652344 142.292969 160.652344 143.082031 C 160.652344 143.71875 161.640625 143.71875 161.640625 143.082031 C 161.640625 142.25 161.664062 141.417969 161.5625 140.589844 C 161.453125 139.691406 161.195312 138.828125 160.90625 137.976562 C 160.902344 137.96875 160.898438 137.960938 160.898438 137.957031 C 160.867188 137.765625 160.828125 137.570312 160.792969 137.382812 C 160.644531 136.667969 160.589844 135.832031 161.492188 135.671875 C 162.40625 135.511719 163.300781 136.050781 163.917969 136.675781 C 163.953125 136.714844 163.988281 136.753906 164.023438 136.789062 C 165.453125 138.445312 165.976562 140.558594 166.277344 142.671875 C 163.46875 143.144531 160.8125 144.328125 158.527344 146.15625 C 158.164062 146.453125 157.851562 146.757812 157.59375 147.023438 C 157.320312 147.308594 157.050781 147.609375 156.796875 147.914062 C 156.339844 148.460938 155.894531 149.066406 155.433594 149.765625 C 154.957031 150.496094 154.511719 151.273438 154.101562 152.082031 C 152.394531 152.171875 150.589844 151.359375 149.117188 150.621094 C 147.546875 149.828125 145.851562 148.851562 144.71875 147.464844 Z M 148.816406 152.265625 C 148.707031 151.933594 148.550781 151.625 148.359375 151.339844 C 148.484375 151.40625 148.609375 151.464844 148.730469 151.527344 C 150.1875 152.246094 151.9375 153.027344 153.628906 153.074219 C 153.539062 153.269531 153.457031 153.464844 153.371094 153.664062 C 153.09375 154.324219 152.839844 155 152.609375 155.691406 C 151.355469 154.855469 149.828125 154.519531 148.320312 154.597656 C 148.855469 153.96875 149.125 153.183594 148.816406 152.265625 Z M 147.179688 160.0625 C 147.175781 160.058594 147.171875 160.058594 147.167969 160.054688 C 146.339844 159.546875 145.398438 159.199219 144.6875 158.523438 C 144.085938 157.953125 144.070312 157.378906 144.710938 156.820312 C 144.914062 156.644531 145.140625 156.5 145.378906 156.371094 C 145.40625 156.363281 145.429688 156.351562 145.457031 156.339844 C 147.503906 155.300781 150.414062 155.203125 152.300781 156.671875 C 151.796875 158.371094 151.425781 160.160156 151.183594 162.082031 C 151.171875 162.183594 151.160156 162.285156 151.148438 162.386719 C 149.816406 161.625 148.515625 160.816406 147.179688 160.0625 Z M 147.542969 164.679688 C 148.367188 164.03125 148.855469 163.0625 148.738281 162.121094 C 149.421875 162.527344 150.109375 162.933594 150.804688 163.328125 C 150.886719 163.375 150.964844 163.394531 151.042969 163.394531 C 150.984375 164.078125 150.941406 164.765625 150.925781 165.449219 C 150.878906 165.40625 150.816406 165.375 150.742188 165.351562 C 149.613281 165.011719 148.433594 164.882812 147.246094 164.894531 C 147.347656 164.824219 147.445312 164.753906 147.542969 164.679688 Z M 147.917969 174.457031 C 146.574219 174.5 145.230469 174.65625 143.914062 174.183594 C 142.199219 173.566406 140.570312 172.0625 140.523438 170.128906 C 140.476562 168.253906 141.957031 166.988281 143.570312 166.351562 C 143.613281 166.335938 143.660156 166.320312 143.703125 166.300781 C 145.898438 165.828125 148.300781 165.652344 150.476562 166.304688 C 150.65625 166.359375 150.808594 166.316406 150.914062 166.21875 C 150.910156 167.90625 151.042969 169.585938 151.308594 171.289062 C 151.410156 171.910156 151.519531 172.507812 151.648438 173.089844 C 150.59375 173.933594 149.246094 174.300781 147.917969 174.457031 Z M 155.082031 182.238281 C 153.734375 181.859375 152.238281 182.417969 150.929688 181.925781 C 150.113281 181.617188 150.058594 180.832031 150.515625 180.160156 C 151.003906 179.445312 151.765625 178.96875 152.246094 178.246094 C 152.714844 177.542969 152.789062 176.648438 152.308594 175.933594 C 151.929688 175.375 151.328125 174.996094 150.691406 174.765625 C 151.109375 174.59375 151.511719 174.382812 151.890625 174.125 C 152.070312 174.832031 152.269531 175.550781 152.5 176.265625 C 152.792969 177.175781 153.109375 178.03125 153.472656 178.882812 C 153.5625 179.105469 153.664062 179.332031 153.765625 179.550781 L 154.089844 180.238281 L 154.152344 180.363281 C 154.363281 180.777344 154.578125 181.210938 154.855469 181.660156 C 154.988281 181.882812 155.132812 182.09375 155.28125 182.296875 C 155.214844 182.277344 155.152344 182.257812 155.082031 182.238281 Z M 155.660156 181.171875 C 155.402344 180.75 155.203125 180.355469 154.988281 179.9375 L 154.9375 179.828125 L 154.621094 179.164062 C 154.527344 178.949219 154.425781 178.730469 154.335938 178.515625 C 153.984375 177.6875 153.675781 176.855469 153.394531 175.976562 C 153.128906 175.152344 152.898438 174.328125 152.707031 173.519531 C 152.527344 172.746094 152.375 171.96875 152.238281 171.136719 C 151.769531 168.136719 151.730469 165.214844 152.117188 162.199219 C 152.5 159.191406 153.191406 156.519531 154.238281 154.03125 C 154.8125 152.667969 155.460938 151.441406 156.21875 150.277344 C 156.660156 149.613281 157.085938 149.035156 157.519531 148.515625 C 157.757812 148.226562 158.015625 147.941406 158.269531 147.675781 C 158.503906 147.433594 158.789062 147.152344 159.117188 146.890625 C 162.445312 144.21875 166.613281 143.003906 170.855469 143.472656 C 175.097656 143.9375 178.90625 146.03125 181.574219 149.359375 C 182.828125 150.925781 183.792969 152.761719 184.394531 154.71875 C 184.503906 155.269531 184.632812 155.816406 184.777344 156.367188 C 184.792969 156.472656 184.808594 156.578125 184.816406 156.679688 C 184.859375 157.046875 184.886719 157.425781 184.90625 157.804688 C 184.933594 158.480469 184.917969 159.195312 184.863281 159.992188 C 184.757812 161.378906 184.523438 162.746094 184.152344 164.175781 C 184.039062 164.617188 183.910156 165.0625 183.769531 165.5 C 183.738281 165.558594 183.714844 165.625 183.707031 165.691406 C 183.035156 167.78125 182.097656 169.839844 180.867188 171.953125 C 179.34375 174.582031 177.53125 176.875 175.335938 178.96875 C 174.722656 179.546875 174.128906 180.074219 173.511719 180.578125 C 172.871094 181.105469 172.1875 181.617188 171.476562 182.113281 C 170.714844 182.640625 169.964844 183.113281 169.175781 183.558594 C 168.976562 183.671875 168.761719 183.789062 168.5625 183.898438 L 167.910156 184.234375 L 167.800781 184.289062 C 167.375 184.492188 166.976562 184.683594 166.519531 184.859375 C 162.484375 186.414062 157.914062 184.867188 155.660156 181.171875 Z M 191.859375 174.15625 C 191.765625 173.394531 191.523438 172.652344 191.132812 171.992188 C 190.898438 171.59375 190.628906 171.238281 190.332031 170.925781 C 190.847656 170.457031 191.511719 170.074219 192 169.871094 C 192.539062 170.476562 193.070312 171.039062 193.621094 171.578125 C 194.230469 172.175781 194.882812 172.769531 195.566406 173.335938 C 196.015625 173.710938 196.464844 174.066406 196.917969 174.402344 C 196.460938 174.195312 195.976562 174.039062 195.484375 173.953125 C 195.464844 173.949219 195.445312 173.949219 195.429688 173.949219 C 195.410156 173.945312 195.390625 173.941406 195.367188 173.9375 C 194.320312 173.8125 193.414062 174.039062 192.664062 174.5 C 192.390625 174.671875 192.136719 174.875 191.902344 175.105469 C 191.914062 174.789062 191.898438 174.472656 191.859375 174.15625 Z M 190.335938 180.699219 C 189.949219 180.34375 189.589844 179.964844 189.328125 179.503906 C 189.324219 179.5 189.320312 179.496094 189.320312 179.492188 C 189.660156 179.332031 189.972656 179.125 190.257812 178.867188 C 190.203125 179.480469 190.226562 180.101562 190.335938 180.699219 Z M 190.324219 177.488281 C 190.007812 177.980469 189.582031 178.421875 189.066406 178.691406 C 188.914062 178.769531 188.757812 178.832031 188.59375 178.878906 C 188.429688 178.925781 188.265625 178.953125 188.09375 178.972656 C 187.28125 179.058594 186.390625 178.859375 185.667969 178.5625 C 183.953125 177.859375 182.292969 176.015625 181.867188 174.195312 C 181.75 173.710938 181.742188 173.1875 181.835938 172.6875 C 181.914062 172.277344 182.058594 171.882812 182.273438 171.53125 C 182.378906 171.355469 182.503906 171.191406 182.644531 171.042969 C 183.339844 170.320312 184.339844 170.003906 185.304688 169.816406 C 185.445312 169.820312 185.585938 169.824219 185.726562 169.832031 C 186.113281 169.855469 186.496094 169.898438 186.863281 169.976562 C 187.632812 170.132812 188.359375 170.421875 189 170.878906 C 189.273438 171.078125 189.535156 171.308594 189.777344 171.570312 C 189.796875 171.59375 189.820312 171.617188 189.839844 171.640625 C 190.375 172.25 190.746094 172.988281 190.929688 173.765625 C 190.929688 173.777344 190.933594 173.789062 190.9375 173.796875 C 191.019531 174.148438 191.0625 174.511719 191.066406 174.871094 C 191.058594 174.871094 191.050781 174.871094 191.046875 174.871094 C 191.050781 174.871094 191.058594 174.875 191.066406 174.878906 C 191.070312 175.445312 190.980469 176.007812 190.785156 176.546875 C 190.738281 176.679688 190.6875 176.8125 190.625 176.941406 C 190.582031 177.039062 190.535156 177.132812 190.480469 177.226562 C 190.46875 177.257812 190.449219 177.289062 190.429688 177.316406 C 190.394531 177.378906 190.359375 177.433594 190.324219 177.488281 Z M 183.15625 169.632812 C 183.617188 168.660156 184.015625 167.691406 184.359375 166.714844 C 184.8125 167.402344 185.097656 168.191406 185.390625 168.972656 C 185.351562 168.972656 185.3125 168.96875 185.273438 168.96875 C 185.230469 168.96875 185.191406 168.976562 185.152344 168.988281 C 184.464844 169.113281 183.777344 169.308594 183.15625 169.632812 Z M 189.554688 170.246094 C 188.660156 169.597656 187.601562 169.21875 186.476562 169.058594 C 186.351562 168.726562 186.234375 168.390625 186.105469 168.074219 C 185.746094 167.191406 185.351562 166.308594 184.734375 165.578125 C 184.855469 165.191406 184.964844 164.800781 185.066406 164.414062 C 185.453125 162.929688 185.695312 161.503906 185.804688 160.058594 C 185.816406 159.90625 185.824219 159.757812 185.832031 159.613281 C 186.140625 160.417969 186.488281 161.234375 186.871094 162.054688 C 188.070312 164.628906 189.535156 166.9375 191.332031 169.097656 C 190.726562 169.378906 190.074219 169.761719 189.554688 170.246094 Z M 160.882812 190.226562 C 160.808594 190.25 160.746094 190.28125 160.695312 190.320312 C 159.8125 190.601562 158.914062 190.804688 158.042969 190.585938 C 157.160156 190.363281 156.582031 189.652344 156.578125 188.75 C 156.578125 187.921875 156.878906 187.125 157.042969 186.328125 C 157.1875 185.632812 157.253906 184.894531 157.074219 184.199219 C 158.835938 185.625 161.035156 186.402344 163.296875 186.402344 C 163.765625 186.402344 164.238281 186.367188 164.714844 186.296875 C 164.230469 188.175781 162.773438 189.683594 160.882812 190.226562 Z M 180.113281 186.988281 C 178.410156 186.648438 176.828125 187.398438 175.824219 188.777344 C 175.800781 188.8125 175.777344 188.84375 175.753906 188.878906 C 175.707031 187 175.328125 185.125 174.652344 183.375 C 174.425781 182.789062 173.46875 183.042969 173.699219 183.640625 C 174.902344 186.753906 175.144531 190.234375 174.132812 193.433594 C 174.074219 193.554688 174.015625 193.671875 173.949219 193.789062 C 173.148438 195.21875 171.207031 196.066406 169.730469 195.097656 C 169.457031 194.917969 169.230469 194.695312 169.03125 194.449219 C 169.019531 194.421875 169.007812 194.394531 168.984375 194.367188 C 167.730469 192.578125 169.164062 190.21875 170 188.554688 C 170.285156 187.988281 169.433594 187.488281 169.144531 188.058594 C 168.597656 189.144531 167.902344 190.4375 167.625 191.734375 C 167.511719 191.523438 167.394531 191.320312 167.253906 191.128906 C 166.425781 189.972656 165.242188 189.519531 163.945312 189.542969 C 164.886719 188.617188 165.546875 187.417969 165.765625 186.089844 C 166.136719 185.992188 166.5 185.878906 166.863281 185.738281 C 167.355469 185.546875 167.792969 185.335938 168.210938 185.132812 L 169.007812 184.726562 C 169.21875 184.613281 169.4375 184.492188 169.648438 184.371094 C 170.457031 183.914062 171.230469 183.425781 172.015625 182.882812 C 172.746094 182.378906 173.453125 181.847656 174.113281 181.304688 C 174.742188 180.789062 175.355469 180.246094 175.988281 179.652344 C 176 179.640625 176.011719 179.625 176.027344 179.613281 C 177.238281 182.195312 178.582031 185.042969 180.613281 187.121094 C 180.449219 187.066406 180.28125 187.019531 180.113281 186.988281 Z M 189.820312 184.964844 C 189.222656 184.792969 188.671875 184.519531 188.09375 184.316406 C 188.089844 184.316406 188.085938 184.3125 188.078125 184.308594 C 186.851562 183.667969 185.589844 183.074219 184.425781 182.320312 C 183.195312 181.519531 182.144531 180.5 181.144531 179.433594 C 180.707031 178.96875 180.007812 179.667969 180.445312 180.132812 C 181.476562 181.234375 182.570312 182.28125 183.839844 183.117188 C 184.476562 183.539062 185.148438 183.90625 185.828125 184.261719 C 185.5625 184.382812 185.332031 184.558594 185.179688 184.816406 C 184.761719 185.511719 185.125 186.253906 185.488281 186.878906 C 185.644531 187.148438 185.871094 187.492188 185.734375 187.8125 C 185.601562 188.128906 185.203125 188.25 184.898438 188.3125 C 184.582031 188.378906 184.277344 188.386719 183.972656 188.351562 C 180.28125 186.578125 178.429688 182.414062 176.773438 178.878906 C 178.355469 177.273438 179.726562 175.546875 180.9375 173.65625 C 181.070312 175.820312 182.804688 177.851562 184.566406 178.941406 C 185.550781 179.554688 186.773438 179.859375 187.933594 179.820312 C 188.082031 179.8125 188.226562 179.800781 188.367188 179.777344 C 188.824219 180.675781 189.710938 181.390625 190.453125 182.078125 C 191.019531 182.601562 191.628906 183.273438 191.601562 184.097656 C 191.5625 185.082031 190.570312 185.179688 189.820312 184.964844 Z M 192.300781 182.859375 C 192.113281 182.46875 191.859375 182.140625 191.574219 181.839844 C 191.15625 181 191.007812 180.007812 191.101562 179.007812 C 191.144531 178.53125 191.234375 178.046875 191.382812 177.578125 C 191.488281 177.25 191.621094 176.929688 191.789062 176.628906 C 191.949219 176.339844 192.140625 176.0625 192.367188 175.820312 C 192.425781 175.753906 192.492188 175.691406 192.554688 175.628906 C 192.824219 175.378906 193.109375 175.1875 193.414062 175.046875 C 193.980469 174.785156 194.613281 174.707031 195.300781 174.78125 C 197.054688 175.101562 198.632812 176.316406 199.257812 178.007812 C 199.859375 179.640625 199.417969 181.535156 198.226562 182.785156 C 197.003906 184.066406 195.128906 184.390625 193.515625 183.6875 C 193.035156 183.476562 192.632812 183.195312 192.300781 182.859375 Z M 201.695312 180.390625 C 201.679688 180.417969 201.664062 180.445312 201.648438 180.476562 C 201.0625 181.539062 201.125 182.726562 200.910156 183.894531 C 200.871094 184.097656 200.820312 184.296875 200.753906 184.488281 C 200.398438 185.53125 199.640625 186.347656 198.550781 186.734375 C 197.449219 187.128906 196.222656 187.066406 195.140625 186.628906 C 194.132812 186.222656 193.050781 185.523438 192.53125 184.539062 C 192.558594 184.414062 192.574219 184.285156 192.582031 184.152344 C 194.234375 185.15625 196.464844 185.179688 198.0625 184.042969 C 199.566406 182.972656 200.445312 181.136719 200.371094 179.304688 C 200.363281 179.09375 200.34375 178.886719 200.308594 178.679688 C 200.277344 178.488281 200.234375 178.300781 200.183594 178.117188 C 199.917969 177.167969 199.386719 176.316406 198.683594 175.625 L 199.035156 175.847656 L 199.15625 175.921875 C 199.554688 176.160156 199.972656 176.410156 200.445312 176.640625 C 201.246094 177.035156 202.074219 177.3125 202.914062 177.476562 C 203.289062 177.976562 203.628906 178.496094 203.980469 179.011719 C 203.027344 178.941406 202.171875 179.585938 201.695312 180.390625 Z M 208.210938 178.339844 C 207.941406 178.984375 207.613281 180.75 206.585938 180.515625 C 206.550781 180.507812 206.519531 180.5 206.488281 180.488281 C 205.566406 179.683594 204.929688 178.644531 204.246094 177.640625 C 204.4375 177.652344 204.628906 177.660156 204.820312 177.660156 C 206.558594 177.660156 208.273438 177.199219 209.78125 176.328125 C 209.875 176.46875 209.972656 176.605469 210.078125 176.734375 C 209.238281 176.832031 208.554688 177.523438 208.210938 178.339844 Z M 209.800781 175.207031 C 209.753906 175.230469 209.710938 175.257812 209.671875 175.292969 C 207.089844 176.957031 203.75 177.21875 200.859375 175.792969 C 200.421875 175.578125 200.039062 175.351562 199.636719 175.109375 L 199.53125 175.046875 L 198.917969 174.65625 L 198.910156 174.652344 C 198.714844 174.523438 198.515625 174.390625 198.328125 174.257812 C 197.585938 173.746094 196.882812 173.210938 196.167969 172.617188 C 195.507812 172.0625 194.871094 171.488281 194.277344 170.90625 C 193.710938 170.351562 193.164062 169.773438 192.609375 169.144531 C 190.609375 166.863281 189.011719 164.414062 187.726562 161.65625 C 186.851562 159.789062 186.183594 157.980469 185.703125 156.175781 C 185.558594 155.613281 185.425781 155.054688 185.316406 154.496094 C 185.253906 154.203125 185.199219 153.910156 185.152344 153.617188 C 184.90625 152.160156 184.800781 150.777344 184.820312 149.386719 C 184.835938 148.585938 184.886719 147.871094 184.976562 147.203125 C 185.023438 146.828125 185.085938 146.453125 185.160156 146.09375 C 185.230469 145.761719 185.320312 145.371094 185.457031 144.976562 C 186.222656 142.773438 187.464844 140.738281 189.046875 139.09375 C 195.152344 132.742188 205.285156 132.542969 211.636719 138.644531 C 211.9375 138.9375 212.199219 139.242188 212.40625 139.503906 C 212.640625 139.792969 212.867188 140.097656 213.082031 140.410156 C 213.464844 140.964844 213.839844 141.578125 214.214844 142.277344 C 214.867188 143.507812 215.40625 144.789062 215.851562 146.195312 C 216.671875 148.769531 217.125 151.492188 217.234375 154.523438 C 217.351562 157.5625 217.046875 160.46875 216.3125 163.410156 C 216.105469 164.226562 215.882812 164.992188 215.628906 165.742188 C 215.367188 166.53125 215.066406 167.332031 214.730469 168.128906 C 214.367188 168.980469 213.988281 169.78125 213.558594 170.578125 C 213.453125 170.78125 213.335938 170.992188 213.222656 171.191406 L 212.851562 171.828125 L 212.785156 171.929688 C 212.539062 172.328125 212.304688 172.703125 212.011719 173.097656 C 211.386719 173.945312 210.636719 174.648438 209.800781 175.207031 Z M 219.761719 175.84375 C 220.027344 176.710938 220.019531 177.601562 219.492188 178.46875 C 218.382812 180.296875 215.746094 180.664062 214.019531 179.53125 C 213.5 179.1875 213.085938 178.703125 212.664062 178.226562 C 212.058594 177.363281 211.179688 176.679688 210.613281 175.792969 C 211.417969 175.210938 212.152344 174.496094 212.769531 173.660156 C 213.085938 173.234375 213.339844 172.824219 213.589844 172.429688 L 214.042969 171.664062 C 214.160156 171.449219 214.285156 171.234375 214.398438 171.019531 C 214.78125 170.296875 215.132812 169.570312 215.464844 168.804688 C 216.480469 169.277344 217.527344 169.664062 218.609375 169.859375 C 218.355469 170.109375 218.167969 170.425781 218.070312 170.816406 C 217.859375 171.667969 218.09375 172.464844 218.457031 173.226562 C 217.476562 172.535156 216.394531 171.957031 215.441406 171.363281 C 214.898438 171.023438 214.402344 171.878906 214.941406 172.21875 C 215.855469 172.789062 216.785156 173.324219 217.671875 173.933594 C 218.445312 174.457031 219.238281 175.050781 219.761719 175.84375 Z M 220.894531 165.785156 C 220.902344 165.789062 220.910156 165.792969 220.917969 165.796875 C 221.050781 165.886719 221.183594 165.976562 221.3125 166.074219 C 221.949219 166.554688 223.066406 167.804688 222.136719 168.554688 C 221.84375 168.789062 221.457031 168.894531 221.054688 168.964844 C 221.015625 168.957031 220.972656 168.957031 220.925781 168.960938 C 219.128906 169.15625 217.453125 168.644531 215.847656 167.894531 C 216.097656 167.273438 216.328125 166.652344 216.53125 166.035156 C 216.710938 165.496094 216.875 164.949219 217.03125 164.382812 C 218.378906 164.398438 219.769531 165.128906 220.894531 165.785156 Z M 224.371094 154.769531 C 224.273438 156.125 222.976562 157.066406 221.933594 157.730469 C 221.441406 158.042969 220.933594 158.34375 220.449219 158.671875 C 220.425781 158.683594 220.398438 158.699219 220.375 158.71875 C 219.65625 159.246094 218.757812 159.371094 217.960938 159.730469 C 218.179688 158.003906 218.25 156.269531 218.179688 154.488281 C 218.15625 153.765625 218.109375 153.0625 218.046875 152.371094 C 219.066406 151.550781 220.640625 151.605469 221.851562 152.09375 C 221.984375 152.152344 222.113281 152.214844 222.242188 152.277344 C 222.300781 152.304688 222.363281 152.335938 222.421875 152.367188 C 222.421875 152.367188 222.421875 152.367188 222.425781 152.367188 C 222.441406 152.378906 222.464844 152.386719 222.480469 152.394531 C 223.4375 152.882812 224.457031 153.5625 224.371094 154.769531 Z M 167.945312 169.109375 C 169.089844 169.496094 170.273438 169.691406 171.449219 169.691406 C 173.097656 169.691406 174.734375 169.308594 176.253906 168.558594 C 178.859375 167.273438 180.808594 165.050781 181.742188 162.296875 C 183.667969 156.617188 180.613281 150.429688 174.933594 148.503906 C 169.25 146.578125 163.0625 149.632812 161.136719 155.3125 C 160.207031 158.0625 160.398438 161.015625 161.683594 163.621094 C 162.96875 166.226562 165.191406 168.175781 167.945312 169.109375 Z M 162.027344 155.613281 C 163.429688 151.476562 167.304688 148.867188 171.445312 148.867188 C 172.5 148.867188 173.574219 149.035156 174.628906 149.394531 C 179.820312 151.152344 182.609375 156.804688 180.851562 161.996094 C 179.996094 164.507812 178.21875 166.539062 175.835938 167.714844 C 173.457031 168.890625 170.761719 169.066406 168.246094 168.214844 C 165.734375 167.363281 163.703125 165.582031 162.527344 163.203125 C 161.351562 160.824219 161.175781 158.128906 162.027344 155.613281 Z M 165.808594 163.902344 C 165.753906 163.484375 166.386719 163.308594 166.445312 163.726562 C 166.601562 164.847656 168.429688 164.15625 169.164062 164.289062 C 169.964844 164.433594 170.296875 165.078125 170.75 165.667969 C 170.984375 165.972656 171.269531 166.21875 171.671875 166.046875 C 172.015625 165.902344 172.28125 165.578125 172.578125 165.359375 C 172.863281 165.152344 173.171875 165 173.527344 164.988281 C 173.914062 164.972656 174.703125 165.355469 174.910156 164.894531 C 175.082031 164.507812 175.652344 164.84375 175.480469 165.226562 C 175.292969 165.648438 174.832031 165.804688 174.398438 165.773438 C 174.078125 165.753906 173.746094 165.589844 173.425781 165.65625 C 173.1875 165.707031 172.980469 165.871094 172.796875 166.023438 C 172.167969 166.535156 171.445312 167.101562 170.65625 166.511719 C 170.308594 166.253906 170.097656 165.863281 169.847656 165.523438 C 169.472656 165.019531 169.046875 164.875 168.421875 164.925781 C 167.828125 164.976562 167.226562 165.136719 166.644531 164.902344 C 166.214844 164.726562 165.875 164.371094 165.808594 163.902344 Z M 166.621094 155.140625 C 167.050781 155.023438 167.386719 155.355469 167.433594 155.769531 C 167.464844 156.078125 167.214844 156.316406 167.226562 156.597656 C 167.242188 156.890625 167.625 156.921875 167.839844 157 C 168.320312 157.175781 168.640625 157.488281 168.804688 157.980469 C 168.953125 158.421875 168.902344 159.910156 169.679688 159.730469 C 170.09375 159.636719 170.269531 160.273438 169.855469 160.367188 C 169.339844 160.488281 168.847656 160.242188 168.582031 159.785156 C 168.25 159.21875 168.417969 158.484375 168.066406 157.941406 C 167.777344 157.492188 167.105469 157.59375 166.757812 157.183594 C 166.628906 157.035156 166.558594 156.839844 166.5625 156.640625 C 166.5625 156.550781 166.738281 155.792969 166.796875 155.777344 C 166.386719 155.890625 166.214844 155.257812 166.621094 155.140625 Z M 173.664062 155.171875 C 174.394531 155.457031 174.621094 156.054688 174.933594 156.710938 C 175.027344 156.910156 175.152344 157.15625 175.351562 157.273438 C 175.625 157.429688 175.925781 157.28125 176.171875 157.144531 C 176.523438 156.949219 176.835938 156.710938 177.242188 156.640625 C 177.5625 156.585938 177.871094 156.644531 178.128906 156.84375 C 178.257812 156.945312 178.765625 157.765625 178.957031 157.582031 C 179.261719 157.285156 179.726562 157.75 179.421875 158.046875 C 178.882812 158.574219 178.28125 158.082031 177.933594 157.613281 C 177.746094 157.359375 177.558594 157.21875 177.234375 157.316406 C 177.019531 157.382812 176.835938 157.515625 176.644531 157.628906 C 176.296875 157.839844 175.925781 158.035156 175.507812 157.996094 C 174.636719 157.917969 174.425781 157.0625 174.085938 156.417969 C 173.707031 155.703125 172.847656 155.476562 172.179688 155.945312 C 171.828125 156.191406 171.5 155.621094 171.847656 155.378906 C 172.375 155.003906 173.0625 154.9375 173.664062 155.171875 Z M 173.664062 155.171875 "/></g><g clip-rule="nonzero" clip-path="url(#298204eae7)"><path style=" stroke:none;fill-rule:nonzero;fill:#284b70;fill-opacity:1;" d="M 285.140625 224.734375 C 286.070312 222.949219 287.605469 221.484375 289.429688 220.632812 C 291.257812 219.78125 293.367188 219.550781 295.332031 219.984375 C 292.921875 223.007812 289.003906 224.878906 285.140625 224.734375 "/></g><path style=" stroke:none;fill-rule:nonzero;fill:#284b70;fill-opacity:1;" d="M 282.039062 223.429688 C 283.125 220.519531 283.226562 217.253906 282.316406 214.285156 C 281.410156 211.316406 279.503906 208.664062 276.976562 206.855469 C 276 212.734375 277.894531 219.152344 282.039062 223.429688 "/><g clip-rule="nonzero" clip-path="url(#b6f1708ac9)"><path style=" stroke:none;fill-rule:nonzero;fill:#284b70;fill-opacity:1;" d="M 284.242188 223.34375 C 283.171875 219.457031 283.421875 215.222656 284.933594 211.488281 C 286.449219 207.753906 289.222656 204.542969 292.695312 202.496094 C 293.28125 210.207031 290.097656 218.289062 284.242188 223.34375 "/></g><g style="fill:#ffffff;fill-opacity:1;"><g transform="translate(97.017178, 263.030184)"><path style="stroke:none" d="M 0.3125 -26.40625 L 0.3125 -33 L 23.515625 -33 L 23.515625 -26.40625 L 15.6875 -26.40625 L 15.6875 0 L 8.15625 0 L 8.15625 -26.40625 Z M 0.3125 -26.40625 "/></g></g><g style="fill:#ffffff;fill-opacity:1;"><g transform="translate(132.254793, 263.030184)"><path style="stroke:none" d="M 19.15625 -33 L 32.484375 0 L 24.40625 0 L 21.953125 -6.59375 L 9.40625 -6.59375 L 6.953125 0 L -1.125 0 L 12.203125 -33 Z M 19.40625 -13.203125 L 15.71875 -22.796875 L 15.640625 -22.796875 L 11.953125 -13.203125 Z M 19.40625 -13.203125 "/></g></g><g style="fill:#ffffff;fill-opacity:1;"><g transform="translate(175.011668, 263.030184)"><path style="stroke:none" d="M 14.5625 -33.59375 C 16.34375 -33.59375 18.085938 -33.332031 19.796875 -32.8125 C 21.503906 -32.300781 22.769531 -31.789062 23.59375 -31.28125 L 24.796875 -30.484375 L 21.765625 -24.484375 C 21.523438 -24.640625 21.191406 -24.84375 20.765625 -25.09375 C 20.335938 -25.351562 19.535156 -25.695312 18.359375 -26.125 C 17.179688 -26.550781 16.085938 -26.765625 15.078125 -26.765625 C 13.828125 -26.765625 12.859375 -26.492188 12.171875 -25.953125 C 11.492188 -25.421875 11.15625 -24.703125 11.15625 -23.796875 C 11.15625 -23.347656 11.316406 -22.925781 11.640625 -22.53125 C 11.960938 -22.144531 12.507812 -21.734375 13.28125 -21.296875 C 14.050781 -20.859375 14.726562 -20.503906 15.3125 -20.234375 C 15.90625 -19.972656 16.816406 -19.578125 18.046875 -19.046875 C 20.171875 -18.140625 21.988281 -16.90625 23.5 -15.34375 C 25.007812 -13.78125 25.765625 -12.015625 25.765625 -10.046875 C 25.765625 -8.148438 25.421875 -6.492188 24.734375 -5.078125 C 24.054688 -3.660156 23.125 -2.550781 21.9375 -1.75 C 20.75 -0.957031 19.4375 -0.367188 18 0.015625 C 16.5625 0.398438 15 0.59375 13.3125 0.59375 C 11.875 0.59375 10.460938 0.445312 9.078125 0.15625 C 7.691406 -0.132812 6.53125 -0.5 5.59375 -0.9375 C 4.664062 -1.375 3.828125 -1.804688 3.078125 -2.234375 C 2.328125 -2.660156 1.78125 -3.019531 1.4375 -3.3125 L 0.921875 -3.765625 L 4.6875 -10.078125 C 5 -9.816406 5.4375 -9.476562 6 -9.0625 C 6.5625 -8.644531 7.554688 -8.085938 8.984375 -7.390625 C 10.410156 -6.703125 11.671875 -6.359375 12.765625 -6.359375 C 15.929688 -6.359375 17.515625 -7.4375 17.515625 -9.59375 C 17.515625 -10.050781 17.398438 -10.472656 17.171875 -10.859375 C 16.953125 -11.242188 16.554688 -11.628906 15.984375 -12.015625 C 15.410156 -12.398438 14.898438 -12.707031 14.453125 -12.9375 C 14.015625 -13.164062 13.296875 -13.515625 12.296875 -13.984375 C 11.296875 -14.453125 10.554688 -14.804688 10.078125 -15.046875 C 8.078125 -16.023438 6.53125 -17.253906 5.4375 -18.734375 C 4.34375 -20.210938 3.796875 -21.804688 3.796875 -23.515625 C 3.796875 -26.472656 4.890625 -28.890625 7.078125 -30.765625 C 9.265625 -32.648438 11.757812 -33.59375 14.5625 -33.59375 Z M 14.5625 -33.59375 "/></g></g><g style="fill:#ffffff;fill-opacity:1;"><g transform="translate(213.288983, 263.030184)"><path style="stroke:none" d="M 0.3125 -26.40625 L 0.3125 -33 L 23.515625 -33 L 23.515625 -26.40625 L 15.6875 -26.40625 L 15.6875 0 L 8.15625 0 L 8.15625 -26.40625 Z M 0.3125 -26.40625 "/></g></g><g style="fill:#ffffff;fill-opacity:1;"><g transform="translate(248.526598, 263.030184)"><path style="stroke:none" d="M -1.203125 -33 L 7.84375 -33 L 14.71875 -22.4375 L 21.59375 -33 L 30.640625 -33 L 18.484375 -14.796875 L 18.484375 0 L 10.953125 0 L 10.953125 -14.796875 Z M -1.203125 -33 "/></g></g></g></svg>